<svg width="827" height="337" viewBox="0 0 827 337" fill="none" xmlns="http://www.w3.org/2000/svg">
<path d="M258.72 222.414C252.42 218.114 245.02 216.014 236.52 216.014C238.32 207.514 238.02 199.714 235.32 192.414C241.12 185.214 244.92 177.314 246.82 168.814C248.62 160.314 248.32 152.514 245.62 145.214C251.42 138.014 255.22 130.114 257.02 121.614C258.82 113.214 258.52 105.314 255.82 98.0139C261.62 90.8139 265.42 82.9139 267.22 74.4139C269.02 65.9139 268.72 58.1139 266.02 50.8139C263.42 43.6139 258.92 37.8139 252.72 33.6139C246.52 29.3139 239.12 27.2139 230.72 27.2139C222.32 27.2139 214.02 29.3139 205.92 33.6139C197.82 37.8139 190.82 43.6139 185.12 50.8139C179.32 58.0139 175.52 65.9139 173.62 74.4139C171.72 82.9139 172.12 90.7139 174.82 98.0139C169.02 105.214 165.22 113.114 163.32 121.614C161.42 130.114 161.92 137.914 164.52 145.214C158.72 152.514 154.82 160.314 153.02 168.814C151.12 177.214 151.62 185.114 154.22 192.414C148.42 199.614 144.62 207.514 142.72 216.014C140.82 224.514 141.32 232.314 143.92 239.614C138.12 246.814 134.22 254.714 132.42 263.214C130.52 271.714 131.02 279.514 133.62 286.814C136.22 294.014 140.72 299.814 147.02 304.014C153.32 308.314 160.72 310.414 169.22 310.414C177.72 310.414 186.02 308.314 194.12 304.014C200.42 308.314 207.82 310.414 216.32 310.414C224.82 310.414 233.12 308.314 241.32 304.014C249.42 299.814 256.42 294.014 262.22 286.814C268.02 279.614 271.82 271.714 273.62 263.214C275.42 254.714 275.02 246.914 272.32 239.614C269.42 232.314 265.02 226.614 258.72 222.414Z" fill="#D2FC51"/>
<path d="M445.52 98.1144C451.32 90.9144 455.02 83.0145 456.82 74.5145C458.62 66.0145 458.22 58.2145 455.52 50.9145C452.82 43.7145 448.32 37.9145 442.12 33.7145C435.82 29.5145 428.52 27.3145 420.12 27.3145C411.72 27.3145 403.42 29.4145 395.32 33.7145C389.02 29.5145 381.72 27.3145 373.32 27.3145C364.92 27.3145 356.62 29.4145 348.52 33.7145C340.42 37.9145 333.52 43.7145 327.72 50.9145C321.92 58.1145 318.12 66.0145 316.32 74.5145C314.52 83.0145 314.92 90.8144 317.62 98.1144C311.82 105.314 308.02 113.214 306.22 121.714C304.42 130.214 304.82 138.014 307.52 145.314C301.72 152.514 297.92 160.414 296.12 168.914C294.32 177.414 294.72 185.214 297.42 192.514C291.62 199.714 287.82 207.614 286.02 216.114C284.22 224.614 284.62 232.414 287.32 239.714C281.52 246.914 277.72 254.814 275.92 263.314C274.12 271.814 274.52 279.614 277.22 286.914C279.92 294.114 284.42 299.914 290.72 304.114C297.02 308.314 304.42 310.514 312.92 310.514C321.42 310.514 329.72 308.414 337.82 304.114C344.12 308.314 351.52 310.514 360.02 310.514C368.52 310.514 376.82 308.414 384.92 304.114C393.02 299.914 400.02 294.114 405.82 286.914C411.62 279.714 415.42 271.814 417.22 263.314C419.02 254.814 418.52 247.014 415.82 239.714C413.12 232.514 408.62 226.714 402.32 222.514C396.02 218.314 388.62 216.114 380.12 216.114C388.62 216.114 396.92 214.014 405.02 209.714C413.12 205.514 420.02 199.714 425.82 192.514C431.62 185.314 435.32 177.414 437.12 168.914C438.92 160.414 438.42 152.614 435.82 145.314C433.12 138.114 428.62 132.314 422.32 128.114C416.02 123.914 408.62 121.714 400.22 121.714C408.62 121.714 416.92 119.614 425.02 115.314C432.82 111.114 439.82 105.414 445.52 98.1144Z" fill="#D2FC51"/>
<path d="M590.32 121.714C598.72 121.714 607.02 119.614 615.12 115.314C623.22 111.114 630.12 105.314 635.82 98.1141C641.52 90.9141 645.32 83.0141 647.02 74.5141C648.72 66.0141 648.32 58.2141 645.62 50.9141C642.92 43.7141 638.42 37.9141 632.12 33.7141C625.72 29.5141 618.42 27.4141 610.02 27.4141C601.62 27.4141 593.32 29.5141 585.32 33.8141C578.92 29.5141 571.62 27.4141 563.22 27.4141C554.82 27.4141 546.52 29.5141 538.52 33.8141C530.42 38.0141 523.52 43.8141 517.82 51.0141C512.12 58.2141 508.32 66.1141 506.52 74.6141C498.12 74.6141 489.82 76.7141 481.72 81.0141C473.62 85.2141 466.72 91.0141 461.02 98.2141C455.22 105.414 451.52 113.314 449.72 121.814C447.92 130.314 448.42 138.114 451.02 145.414C453.72 152.614 458.22 158.414 464.52 162.614C470.82 166.814 478.22 169.014 486.62 169.014C484.82 177.514 485.32 185.314 488.02 192.614C490.72 199.814 495.22 205.614 501.52 209.814C507.82 214.014 515.22 216.214 523.72 216.214C515.22 216.214 506.92 218.314 498.82 222.614C492.52 218.414 485.12 216.214 476.62 216.214C468.12 216.214 459.82 218.314 451.72 222.614C443.62 226.814 436.72 232.614 430.92 239.814C425.12 247.014 421.42 254.914 419.62 263.414C417.82 271.914 418.32 279.714 421.02 287.014C423.72 294.214 428.22 300.014 434.62 304.214C440.92 308.414 448.32 310.614 456.82 310.614C465.32 310.614 473.62 308.514 481.72 304.214C488.02 308.414 495.42 310.614 503.92 310.614C512.42 310.614 520.72 308.514 528.82 304.214C536.92 300.014 543.82 294.214 549.62 287.014C555.32 279.814 559.12 271.914 560.92 263.414C569.42 263.414 577.72 261.314 585.82 257.014C593.92 252.814 600.82 247.014 606.52 239.814C612.22 232.614 616.02 224.714 617.72 216.214C619.42 207.714 619.02 199.914 616.22 192.614C613.52 185.414 608.92 179.614 602.62 175.414C596.32 171.214 588.92 169.014 580.42 169.014C582.22 160.514 581.72 152.714 579.02 145.414C576.32 138.214 571.82 132.414 565.52 128.214C559.22 124.014 551.82 121.814 543.42 121.814C551.82 121.814 560.12 119.714 568.22 115.414C574.52 119.614 581.92 121.714 590.32 121.714Z" fill="#D2FC51"/>
<path d="M782.019 175.214C775.719 171.014 768.32 168.814 759.82 168.814C761.52 160.314 761.02 152.514 758.32 145.214C755.52 138.014 751.019 132.214 744.719 128.014C738.419 123.814 731.019 121.614 722.519 121.614C730.919 121.614 739.22 119.514 747.32 115.214C753.62 119.414 761.019 121.614 769.519 121.614C778.019 121.614 786.22 119.514 794.32 115.214C802.32 111.014 809.219 105.214 814.919 98.0141C820.619 90.8141 824.319 82.9141 826.019 74.4141C827.719 65.9141 827.219 58.1141 824.419 50.8141C821.619 43.6141 817.12 37.8141 810.82 33.6141C804.42 29.5141 797.02 27.4141 788.62 27.4141C780.22 27.4141 771.919 29.5141 763.919 33.8141C757.619 29.5141 750.22 27.4141 741.82 27.4141C733.42 27.4141 725.12 29.5141 717.12 33.8141C709.02 38.0141 702.219 43.8141 696.519 51.0141C690.819 58.2141 687.12 66.1141 685.32 74.6141C676.92 74.6141 668.62 76.7141 660.62 81.0141C652.52 85.2141 645.619 91.0141 639.919 98.2141C634.219 105.414 630.419 113.314 628.719 121.814C627.019 130.314 627.419 138.114 630.219 145.414C632.919 152.614 637.52 158.414 643.82 162.614C650.12 166.814 657.519 169.014 666.019 169.014C664.319 177.514 664.819 185.314 667.519 192.614C670.219 199.814 674.82 205.614 681.12 209.814C687.42 214.014 694.82 216.214 703.32 216.214C694.82 216.214 686.619 218.314 678.519 222.614C672.119 218.414 664.72 216.214 656.32 216.214C647.82 216.214 639.619 218.314 631.519 222.614C623.419 226.814 616.52 232.614 610.82 239.814C605.12 247.014 601.32 254.914 599.62 263.414C597.92 271.914 598.32 279.714 601.12 287.014C603.82 294.214 608.419 300.014 614.719 304.214C621.119 308.414 628.519 310.614 637.019 310.614C645.519 310.614 653.819 308.514 661.919 304.214C668.319 308.414 675.719 310.614 684.219 310.614C692.719 310.614 701.02 308.514 709.12 304.214C717.22 300.014 724.12 294.214 729.82 287.014C735.52 279.814 739.219 271.914 741.019 263.414C749.519 263.414 757.82 261.314 765.82 257.014C773.92 252.814 780.819 247.014 786.519 239.814C792.219 232.614 795.92 224.714 797.62 216.214C799.32 207.714 798.819 199.914 796.019 192.614C792.919 185.214 788.419 179.414 782.019 175.214Z" fill="#D2FC51"/>
<path d="M63.668 306.314C59.268 308.914 54.468 310.214 49.168 310.214C43.868 310.214 39.168 308.914 34.668 306.314C30.268 303.714 26.768 300.214 24.068 295.714C21.468 291.214 20.168 286.414 20.168 281.214C20.168 276.014 21.468 271.214 24.068 266.714C24.968 265.314 25.868 263.914 26.968 262.614C25.868 261.314 24.968 260.014 24.068 258.514C21.568 254.214 20.268 249.414 20.268 244.214C20.268 239.014 21.568 234.214 24.168 229.714C26.768 225.314 30.268 221.814 34.768 219.114C39.268 216.514 44.068 215.214 49.268 215.214C54.468 215.214 59.268 216.514 63.768 219.114C65.168 220.014 66.568 220.914 67.868 222.014C69.168 220.914 70.468 220.014 71.968 219.114C76.368 216.514 81.168 215.214 86.468 215.214C91.768 215.214 96.468 216.514 100.968 219.114C105.368 221.714 108.868 225.214 111.568 229.714C114.168 234.214 115.468 239.014 115.468 244.214C115.468 249.414 114.168 254.214 111.568 258.714C110.668 260.114 109.768 261.514 108.668 262.814C109.768 264.114 110.668 265.414 111.568 266.914C114.168 271.314 115.468 276.114 115.468 281.414C115.468 286.614 114.168 291.414 111.568 295.914C108.968 300.314 105.468 303.814 100.968 306.514C96.468 309.114 91.668 310.414 86.468 310.414C81.268 310.414 76.468 309.114 71.968 306.514C70.568 305.614 69.168 304.714 67.868 303.614C66.468 304.614 65.168 305.514 63.668 306.314Z" fill="#D2FC51"/>
</svg>
