<svg width="147" height="186" viewBox="0 0 147 186" fill="none" xmlns="http://www.w3.org/2000/svg">
<path d="M131.448 0C139.581 0 146.174 6.59286 146.174 14.7256V128.735L127.1 30.4414C125.101 20.1402 115.13 13.4092 104.828 15.4082L25.6575 30.7715V14.7256C25.6575 6.59285 32.2503 0 40.3831 0H131.448Z" fill="#FF6A00"/>
<rect y="41.9629" width="120.517" height="146.269" rx="13.5289" transform="rotate(-10.9817 0 41.9629)" fill="#FF6A00"/>
<path d="M75.1629 115.396C74.1274 115.627 73.1013 114.974 72.8709 113.939L71.3463 107.086L64.7999 108.543C63.7644 108.773 62.7382 108.12 62.5078 107.085L62.2179 105.782C61.9875 104.746 62.6402 103.72 63.6757 103.49L70.2221 102.033L68.6975 95.1806C68.4671 94.1451 69.1197 93.1189 70.1552 92.8886L71.6113 92.5646C72.6468 92.3342 73.673 92.9869 73.9034 94.0224L75.428 100.875L81.9744 99.4185C83.0099 99.1881 84.0361 99.8408 84.2664 100.876L84.5563 102.179C84.7867 103.215 84.134 104.241 83.0986 104.471L76.5522 105.928L78.0768 112.78C78.3072 113.816 77.6545 114.842 76.619 115.072L75.1629 115.396Z" fill="#272727"/>
</svg>
