<svg width="39" height="39" viewBox="0 0 39 39" fill="none" xmlns="http://www.w3.org/2000/svg">
<path fill-rule="evenodd" clip-rule="evenodd" d="M27.3248 2.001C29.9928 -0.667 34.3209 -0.667 36.9928 2.001C39.6647 4.6729 39.6647 9.001 36.9928 11.6729L33.0162 15.6495C35.0514 17.8057 35.0162 21.1964 32.9068 23.3057L30.7037 25.5127C30.1178 26.0947 29.1646 26.0986 28.5826 25.5127L25.8678 22.7979L12.7548 35.9069C12.0634 36.5983 11.2001 37.0905 10.2587 37.3366L4.39153 38.8757C1.80173 39.5515 -0.561571 37.1882 0.118129 34.6023L1.65333 28.7351C1.89942 27.7898 2.39161 26.9265 3.08303 26.239L16.196 13.126L13.4851 10.4151C12.8992 9.82916 12.8992 8.8799 13.4851 8.294L15.6882 6.087C17.7976 3.9776 21.1882 3.9464 23.3444 5.97762L27.3248 2.001ZM5.20781 28.36C4.8914 28.6725 4.66484 29.0631 4.55547 29.4928L3.02027 35.3639C2.92261 35.7311 3.26246 36.067 3.62964 35.9733L9.50074 34.4381C9.92652 34.3248 10.321 34.1021 10.6335 33.7857L23.7465 20.6767L18.3168 15.247L5.20781 28.36ZM34.8718 4.122C33.3718 2.6259 30.9421 2.6259 29.446 4.122L24.4108 9.1572C23.8249 9.74314 22.8756 9.74314 22.2897 9.1572L21.3444 8.20798C20.3678 7.23142 18.7858 7.23532 17.8092 8.20798L16.6647 9.35248L29.6417 22.3295L30.7862 21.185C31.7628 20.2084 31.7628 18.6264 30.7862 17.6498L29.8409 16.7045C29.255 16.1185 29.255 15.1693 29.8409 14.5834L34.8721 9.55217C36.3721 8.05217 36.3718 5.622 34.8718 4.122Z" fill="white"/>
</svg>
