<svg width="349" height="118" viewBox="0 0 349 118" fill="none" xmlns="http://www.w3.org/2000/svg">
<mask id="path-1-inside-1_36_573" fill="white">
<path d="M266.309 0C275.127 0.000184451 283.201 3.18098 289.452 8.4541C295.703 3.1812 303.778 0.00104206 312.596 0.000976563C332.433 0.00124079 348.515 16.082 348.515 35.9189C348.515 44.7079 345.356 52.7586 340.114 59.001C345.355 65.2433 348.515 73.2934 348.515 82.082C348.515 101.919 332.433 118 312.596 118C303.778 118 295.702 114.822 289.451 109.549C286.057 112.412 282.125 114.659 277.828 116.113C277.55 116.207 277.27 116.298 276.989 116.386C273.615 117.435 270.028 118 266.309 118C262.589 118 259.001 117.435 255.627 116.386C255.346 116.298 255.066 116.207 254.788 116.113C250.601 114.696 246.761 112.526 243.427 109.767C237.213 114.908 229.24 118 220.545 118C220.457 118 220.37 117.997 220.282 117.996C220.195 117.997 220.108 118 220.021 118C211.324 118 203.35 114.908 197.136 109.766C193.802 112.524 189.964 114.696 185.777 116.113C185.499 116.207 185.219 116.298 184.938 116.386C181.565 117.435 177.977 118 174.258 118C170.538 118 166.95 117.435 163.576 116.386C163.295 116.298 163.015 116.207 162.737 116.113C158.55 114.696 154.71 112.526 151.376 109.767C145.162 114.908 137.189 118 128.493 118C128.406 118 128.319 117.997 128.231 117.996C128.144 117.997 128.057 118 127.97 118C119.273 118 111.298 114.909 105.084 109.766C101.75 112.524 97.9125 114.696 93.7256 116.113C93.4475 116.207 93.1678 116.298 92.8867 116.386C89.5128 117.435 85.9253 118 82.2061 118C78.4866 118 74.8986 117.435 71.5244 116.386C71.2434 116.298 70.9636 116.207 70.6855 116.113C66.4319 114.674 62.5359 112.458 59.165 109.637C59.1302 109.608 59.0962 109.577 59.0615 109.548C52.8105 114.82 44.7358 118 35.918 118C16.0812 118 -1.10364e-06 101.918 0 82.0811C0.00010644 73.2925 3.15827 65.2423 8.39941 59C3.15816 52.7576 -4.88968e-07 44.7067 0 35.918C0.000235713 16.0813 16.0814 0.000367008 35.918 0C44.736 4.90606e-07 52.8105 3.18042 59.0615 8.45313C65.3127 3.18002 73.3877 5.85405e-05 82.2061 0C90.9003 6.64311e-05 98.8695 3.09378 105.083 8.23438C111.297 3.09105 119.273 0.000102721 127.97 0C128.071 1.34663e-06 128.172 0.0020953 128.272 0.00292969C128.346 0.00248598 128.42 0.000977602 128.493 0.000976563C137.189 0.000977046 145.163 3.09224 151.377 8.23438C157.591 3.09284 165.563 -4.83769e-07 174.258 0C182.952 0.000181852 190.921 3.09292 197.135 8.2334C203.349 3.0906 211.324 0.000102715 220.021 0C220.122 1.34663e-06 220.222 0.0020953 220.323 0.00292969C220.397 0.00248451 220.471 0.000977111 220.545 0.000976563C229.241 0.00109239 237.214 3.09241 243.428 8.23438C249.642 3.09284 257.613 -4.83769e-07 266.309 0Z"/>
</mask>
<path d="M266.309 0C275.127 0.000184451 283.201 3.18098 289.452 8.4541C295.703 3.1812 303.778 0.00104206 312.596 0.000976563C332.433 0.00124079 348.515 16.082 348.515 35.9189C348.515 44.7079 345.356 52.7586 340.114 59.001C345.355 65.2433 348.515 73.2934 348.515 82.082C348.515 101.919 332.433 118 312.596 118C303.778 118 295.702 114.822 289.451 109.549C286.057 112.412 282.125 114.659 277.828 116.113C277.55 116.207 277.27 116.298 276.989 116.386C273.615 117.435 270.028 118 266.309 118C262.589 118 259.001 117.435 255.627 116.386C255.346 116.298 255.066 116.207 254.788 116.113C250.601 114.696 246.761 112.526 243.427 109.767C237.213 114.908 229.24 118 220.545 118C220.457 118 220.37 117.997 220.282 117.996C220.195 117.997 220.108 118 220.021 118C211.324 118 203.35 114.908 197.136 109.766C193.802 112.524 189.964 114.696 185.777 116.113C185.499 116.207 185.219 116.298 184.938 116.386C181.565 117.435 177.977 118 174.258 118C170.538 118 166.95 117.435 163.576 116.386C163.295 116.298 163.015 116.207 162.737 116.113C158.55 114.696 154.71 112.526 151.376 109.767C145.162 114.908 137.189 118 128.493 118C128.406 118 128.319 117.997 128.231 117.996C128.144 117.997 128.057 118 127.97 118C119.273 118 111.298 114.909 105.084 109.766C101.75 112.524 97.9125 114.696 93.7256 116.113C93.4475 116.207 93.1678 116.298 92.8867 116.386C89.5128 117.435 85.9253 118 82.2061 118C78.4866 118 74.8986 117.435 71.5244 116.386C71.2434 116.298 70.9636 116.207 70.6855 116.113C66.4319 114.674 62.5359 112.458 59.165 109.637C59.1302 109.608 59.0962 109.577 59.0615 109.548C52.8105 114.82 44.7358 118 35.918 118C16.0812 118 -1.10364e-06 101.918 0 82.0811C0.00010644 73.2925 3.15827 65.2423 8.39941 59C3.15816 52.7576 -4.88968e-07 44.7067 0 35.918C0.000235713 16.0813 16.0814 0.000367008 35.918 0C44.736 4.90606e-07 52.8105 3.18042 59.0615 8.45313C65.3127 3.18002 73.3877 5.85405e-05 82.2061 0C90.9003 6.64311e-05 98.8695 3.09378 105.083 8.23438C111.297 3.09105 119.273 0.000102721 127.97 0C128.071 1.34663e-06 128.172 0.0020953 128.272 0.00292969C128.346 0.00248598 128.42 0.000977602 128.493 0.000976563C137.189 0.000977046 145.163 3.09224 151.377 8.23438C157.591 3.09284 165.563 -4.83769e-07 174.258 0C182.952 0.000181852 190.921 3.09292 197.135 8.2334C203.349 3.0906 211.324 0.000102715 220.021 0C220.122 1.34663e-06 220.222 0.0020953 220.323 0.00292969C220.397 0.00248451 220.471 0.000977111 220.545 0.000976563C229.241 0.00109239 237.214 3.09241 243.428 8.23438C249.642 3.09284 257.613 -4.83769e-07 266.309 0Z" fill="#49522F"/>
<path d="M266.309 0L266.309 -5H266.309V0ZM289.452 8.4541L286.228 12.2759L289.452 14.9954L292.676 12.276L289.452 8.4541ZM312.596 0.000976562L312.596 -4.99902H312.596L312.596 0.000976562ZM348.515 35.9189L353.515 35.9189V35.9189H348.515ZM340.114 59.001L336.285 55.7858L333.585 59.0009L336.285 62.2161L340.114 59.001ZM348.515 82.082H353.515V82.082L348.515 82.082ZM312.596 118L312.596 123H312.596L312.596 118ZM289.451 109.549L292.675 105.727L289.451 103.008L286.228 105.727L289.451 109.549ZM277.828 116.113L279.431 120.849L279.431 120.849L277.828 116.113ZM276.989 116.386L278.474 121.16L278.474 121.16L276.989 116.386ZM266.309 118V123H266.309L266.309 118ZM255.627 116.386L254.142 121.16L254.142 121.16L255.627 116.386ZM254.788 116.113L253.185 120.849L253.185 120.849L254.788 116.113ZM243.427 109.767L246.614 105.914L243.427 103.277L240.239 105.914L243.427 109.767ZM220.545 118L220.545 123H220.545L220.545 118ZM220.282 117.996L220.318 112.996L220.282 112.996L220.246 112.996L220.282 117.996ZM220.021 118L220.02 123H220.021L220.021 118ZM197.136 109.766L200.324 105.914L197.136 103.276L193.948 105.913L197.136 109.766ZM185.777 116.113L187.38 120.849L187.38 120.849L185.777 116.113ZM184.938 116.386L186.423 121.16L186.423 121.16L184.938 116.386ZM174.258 118V123H174.258L174.258 118ZM163.576 116.386L162.091 121.16L162.091 121.16L163.576 116.386ZM162.737 116.113L161.135 120.849L161.135 120.849L162.737 116.113ZM151.376 109.767L154.563 105.914L151.376 103.277L148.188 105.914L151.376 109.767ZM128.493 118L128.493 123H128.493V118ZM128.231 117.996L128.267 112.996L128.231 112.996L128.196 112.996L128.231 117.996ZM127.97 118L127.97 123H127.97L127.97 118ZM105.084 109.766L108.272 105.914L105.084 103.276L101.897 105.913L105.084 109.766ZM93.7256 116.113L95.3282 120.849L95.3283 120.849L93.7256 116.113ZM92.8867 116.386L94.3717 121.16L94.3717 121.16L92.8867 116.386ZM82.2061 118L82.206 123H82.2061L82.2061 118ZM71.5244 116.386L73.0095 111.611V111.611L71.5244 116.386ZM70.6855 116.113L69.0828 120.849L69.0828 120.849L70.6855 116.113ZM59.165 109.637L55.9553 113.47L55.9556 113.471L59.165 109.637ZM59.0615 109.548L62.2853 105.726L59.0616 103.007L55.8378 105.726L59.0615 109.548ZM35.918 118L35.9179 123H35.918V118ZM0 82.0811L-5 82.081V82.0811H0ZM8.39941 59L12.2286 62.2151L14.9281 59L12.2286 55.7849L8.39941 59ZM0 35.918L-5 35.9179V35.918H0ZM35.918 0V-5H35.9179L35.918 0ZM59.0615 8.45312L55.8378 12.2751L59.0616 14.9944L62.2854 12.275L59.0615 8.45312ZM82.2061 0L82.2061 -5H82.206L82.2061 0ZM105.083 8.23438L101.896 12.0868L105.084 14.7242L108.271 12.0862L105.083 8.23438ZM127.97 0L127.97 -5H127.97L127.97 0ZM128.272 0.00292969L128.231 5.00276L128.267 5.00305L128.303 5.00284L128.272 0.00292969ZM128.493 0.000976562V-4.99902H128.493L128.493 0.000976562ZM151.377 8.23438L148.189 12.0866L151.377 14.7241L154.564 12.0866L151.377 8.23438ZM174.258 0L174.258 -5H174.258V0ZM197.135 8.2334L193.948 12.0859L197.135 14.7232L200.323 12.0854L197.135 8.2334ZM220.021 0L220.021 -5H220.02L220.021 0ZM220.323 0.00292969L220.282 5.00276L220.318 5.00305L220.353 5.00284L220.323 0.00292969ZM220.545 0.000976562L220.545 -4.99902H220.545L220.545 0.000976562ZM243.428 8.23438L240.24 12.0866L243.428 14.7241L246.615 12.0866L243.428 8.23438ZM266.309 0L266.309 5C273.902 5.00016 280.844 7.7342 286.228 12.2759L289.452 8.4541L292.676 4.63228C285.558 -1.37225 276.352 -4.99979 266.309 -5L266.309 0ZM289.452 8.4541L292.676 12.276C298.06 7.7346 305.002 5.00103 312.596 5.00098L312.596 0.000976562L312.596 -4.99902C302.553 -4.99895 293.347 -1.3722 286.228 4.63221L289.452 8.4541ZM312.596 0.000976562L312.596 5.00098C329.671 5.0012 343.515 18.8437 343.515 35.9189H348.515H353.515C353.515 13.3204 335.194 -4.99872 312.596 -4.99902L312.596 0.000976562ZM348.515 35.9189L343.515 35.9189C343.515 43.4876 340.799 50.4096 336.285 55.7858L340.114 59.001L343.943 62.2162C349.912 55.1075 353.515 45.9282 353.515 35.9189L348.515 35.9189ZM340.114 59.001L336.285 62.2161C340.799 67.5924 343.515 74.5138 343.515 82.0821L348.515 82.082L353.515 82.082C353.515 72.0729 349.912 62.8942 343.943 55.7859L340.114 59.001ZM348.515 82.082H343.515C343.515 99.1573 329.671 113 312.596 113L312.596 118L312.596 123C335.194 123 353.515 104.681 353.515 82.082H348.515ZM312.596 118L312.596 113C305.001 113 298.058 110.268 292.675 105.727L289.451 109.549L286.227 113.371C293.346 119.376 302.554 123 312.596 123L312.596 118ZM289.451 109.549L286.228 105.727C283.301 108.195 279.917 110.128 276.225 111.377L277.828 116.113L279.431 120.849C284.333 119.19 288.812 116.629 292.675 113.371L289.451 109.549ZM277.828 116.113L276.225 111.377C275.985 111.458 275.745 111.537 275.504 111.611L276.989 116.386L278.474 121.16C278.796 121.06 279.115 120.956 279.431 120.849L277.828 116.113ZM276.989 116.386L275.504 111.611C272.606 112.513 269.519 113 266.309 113L266.309 118L266.309 123C270.536 123 274.625 122.357 278.474 121.16L276.989 116.386ZM266.309 118V113C263.098 113 260.01 112.513 257.112 111.611L255.627 116.386L254.142 121.16C257.992 122.358 262.081 123 266.309 123V118ZM255.627 116.386L257.112 111.611C256.872 111.537 256.631 111.458 256.391 111.377L254.788 116.113L253.185 120.849C253.501 120.956 253.82 121.06 254.142 121.16L255.627 116.386ZM254.788 116.113L256.391 111.377C252.794 110.16 249.489 108.293 246.614 105.914L243.427 109.767L240.239 113.619C244.033 116.758 248.408 119.233 253.185 120.849L254.788 116.113ZM243.427 109.767L240.239 105.914C234.888 110.342 228.033 113 220.545 113L220.545 118L220.545 123C230.447 123 239.538 119.474 246.614 113.619L243.427 109.767ZM220.545 118L220.545 113C220.558 113 220.56 113 220.516 112.999C220.5 112.999 220.468 112.998 220.438 112.998C220.406 112.997 220.364 112.997 220.318 112.996L220.282 117.996L220.246 122.996C220.244 122.996 220.246 122.996 220.257 122.996C220.271 122.996 220.283 122.997 220.311 122.997C220.355 122.998 220.445 123 220.545 123L220.545 118ZM220.282 117.996L220.246 112.996C220.2 112.997 220.158 112.997 220.126 112.998C220.096 112.998 220.064 112.999 220.048 112.999C220.005 113 220.007 113 220.02 113L220.021 118L220.021 123C220.121 123 220.211 122.998 220.254 122.997C220.282 122.997 220.294 122.996 220.307 122.996C220.319 122.996 220.321 122.996 220.318 122.996L220.282 117.996ZM220.021 118L220.021 113C212.531 113 205.675 110.342 200.324 105.914L197.136 109.766L193.948 113.618C201.025 119.475 210.118 123 220.02 123L220.021 118ZM197.136 109.766L193.948 105.913C191.072 108.293 187.77 110.161 184.175 111.377L185.777 116.113L187.38 120.849C192.159 119.232 196.531 116.756 200.323 113.618L197.136 109.766ZM185.777 116.113L184.175 111.377C183.935 111.458 183.694 111.537 183.453 111.611L184.938 116.386L186.423 121.16C186.745 121.06 187.064 120.956 187.38 120.849L185.777 116.113ZM184.938 116.386L183.454 111.611C180.555 112.513 177.468 113 174.258 113L174.258 118L174.258 123C178.486 123 182.574 122.357 186.423 121.16L184.938 116.386ZM174.258 118V113C171.047 113 167.959 112.513 165.061 111.611L163.576 116.386L162.091 121.16C165.941 122.358 170.03 123 174.258 123V118ZM163.576 116.386L165.061 111.611C164.821 111.537 164.58 111.458 164.34 111.377L162.737 116.113L161.135 120.849C161.45 120.956 161.77 121.06 162.091 121.16L163.576 116.386ZM162.737 116.113L164.34 111.377C160.743 110.16 157.438 108.293 154.563 105.914L151.376 109.767L148.188 113.619C151.983 116.758 156.357 119.233 161.135 120.849L162.737 116.113ZM151.376 109.767L148.188 105.914C142.837 110.342 135.982 113 128.493 113V118V123C138.396 123 147.487 119.475 154.563 113.619L151.376 109.767ZM128.493 118L128.493 113C128.506 113 128.509 113 128.465 112.999C128.449 112.999 128.417 112.998 128.387 112.998C128.355 112.997 128.314 112.997 128.267 112.996L128.231 117.996L128.196 122.996C128.193 122.996 128.195 122.996 128.206 122.996C128.22 122.996 128.231 122.997 128.259 122.997C128.303 122.998 128.393 123 128.493 123L128.493 118ZM128.231 117.996L128.196 112.996C128.149 112.997 128.108 112.997 128.075 112.998C128.045 112.998 128.013 112.999 127.998 112.999C127.954 113 127.957 113 127.97 113L127.97 118L127.97 123C128.07 123 128.16 122.998 128.204 122.997C128.231 122.997 128.243 122.996 128.257 122.996C128.268 122.996 128.27 122.996 128.267 122.996L128.231 117.996ZM127.97 118L127.97 113C120.48 113 113.623 110.342 108.272 105.914L105.084 109.766L101.896 113.618C108.974 119.475 118.067 123 127.97 123L127.97 118ZM105.084 109.766L101.897 105.913C99.0206 108.293 95.7178 110.161 92.1229 111.377L93.7256 116.113L95.3283 120.849C100.107 119.232 104.479 116.756 108.271 113.618L105.084 109.766ZM93.7256 116.113L92.123 111.377C91.8826 111.458 91.6421 111.537 91.4018 111.611L92.8867 116.386L94.3717 121.16C94.6934 121.06 95.0125 120.956 95.3282 120.849L93.7256 116.113ZM92.8867 116.386L91.4018 111.611C88.5036 112.513 85.4165 113 82.206 113L82.2061 118L82.2061 123C86.4341 123 90.522 122.357 94.3717 121.16L92.8867 116.386ZM82.2061 118L82.2061 113C78.9952 113 75.9076 112.513 73.0095 111.611L71.5244 116.386L70.0394 121.16C73.8895 122.358 77.978 123 82.206 123L82.2061 118ZM71.5244 116.386L73.0095 111.611C72.769 111.537 72.5284 111.458 72.2883 111.377L70.6855 116.113L69.0828 120.849C69.3988 120.956 69.7178 121.06 70.0394 121.16L71.5244 116.386ZM70.6855 116.113L72.2883 111.377C68.6327 110.14 65.2794 108.234 62.3744 105.803L59.165 109.637L55.9556 113.471C59.7923 116.682 64.2311 119.208 69.0828 120.849L70.6855 116.113ZM59.165 109.637L62.3747 105.803C62.387 105.813 62.3953 105.82 62.3975 105.822C62.3989 105.823 62.3985 105.823 62.39 105.816C62.3842 105.811 62.3686 105.797 62.3528 105.784C62.3359 105.769 62.3125 105.749 62.2853 105.726L59.0615 109.548L55.8377 113.37C55.8326 113.365 55.8287 113.362 55.8261 113.36C55.8236 113.358 55.8221 113.356 55.8221 113.356C55.822 113.356 55.8223 113.357 55.8229 113.357C55.8235 113.358 55.8243 113.358 55.8255 113.359C55.8285 113.362 55.831 113.364 55.8364 113.369C55.8514 113.382 55.8997 113.424 55.9553 113.47L59.165 109.637ZM59.0615 109.548L55.8378 105.726C50.4541 110.267 43.5114 113 35.918 113V118V123C45.9602 123 55.1669 119.374 62.2852 113.37L59.0615 109.548ZM35.918 118L35.9181 113C18.8427 113 5 99.1566 5 82.0811H0H-5C-5 104.679 13.3197 123 35.9179 123L35.918 118ZM0 82.0811L5 82.0811C5.00009 74.5126 7.71493 67.591 12.2286 62.2151L8.39941 59L4.57018 55.7849C-1.39839 62.8935 -4.99988 72.0724 -5 82.081L0 82.0811ZM8.39941 59L12.2286 55.7849C7.71489 50.409 5 43.4867 5 35.918H0H-5C-5 45.9267 -1.39856 55.1063 4.57018 62.2151L8.39941 59ZM0 35.918L5 35.918C5.0002 18.8428 18.8428 5.00032 35.9181 5L35.918 0L35.9179 -5C13.3199 -4.99958 -4.99973 13.3199 -5 35.9179L0 35.918ZM35.918 0V5C43.5113 5 50.4538 7.73377 55.8378 12.2751L59.0615 8.45312L62.2853 4.63117C55.1671 -1.37292 45.9607 -5 35.918 -5V0ZM59.0615 8.45312L62.2854 12.275C67.6692 7.73354 74.6121 5.00005 82.2061 5L82.2061 0L82.206 -5C72.1632 -4.99993 62.9562 -1.37351 55.8376 4.63128L59.0615 8.45312ZM82.2061 0L82.206 5C89.6921 5.00006 96.5437 7.65898 101.896 12.0868L105.083 8.23438L108.27 4.38191C101.195 -1.47142 92.1086 -4.99992 82.2061 -5L82.2061 0ZM105.083 8.23438L108.271 12.0862C113.622 7.65759 120.479 5.00009 127.97 5L127.97 0L127.97 -5C118.067 -4.99988 108.973 -1.47549 101.895 4.38252L105.083 8.23438ZM127.97 0L127.97 5C128.057 5 128.033 5.00112 128.231 5.00276L128.272 0.00292969L128.314 -4.9969C128.31 -4.99693 128.084 -5 127.97 -5L127.97 0ZM128.272 0.00292969L128.303 5.00284C128.509 5.00159 128.403 5.00098 128.493 5.00098L128.493 0.000976562L128.493 -4.99902C128.425 -4.99902 128.363 -4.99833 128.324 -4.99787C128.277 -4.99731 128.26 -4.99709 128.242 -4.99698L128.272 0.00292969ZM128.493 0.000976562V5.00098C135.982 5.00098 142.838 7.65851 148.189 12.0866L151.377 8.23438L154.565 4.38219C147.487 -1.47403 138.396 -4.99902 128.493 -4.99902V0.000976562ZM151.377 8.23438L154.564 12.0866C159.916 7.65852 166.77 5 174.258 5V0V-5C164.355 -5 155.266 -1.47284 148.189 4.38211L151.377 8.23438ZM174.258 0L174.258 5C181.744 5.00016 188.596 7.6584 193.948 12.0859L197.135 8.2334L200.322 4.38093C193.247 -1.47256 184.16 -4.99979 174.258 -5L174.258 0ZM197.135 8.2334L200.323 12.0854C205.673 7.65722 212.53 5.00009 220.021 5L220.021 0L220.02 -5C210.118 -4.99988 201.025 -1.47603 193.947 4.38142L197.135 8.2334ZM220.021 0L220.02 5C220.108 5 220.084 5.00112 220.282 5.00276L220.323 0.00292969L220.365 -4.9969C220.361 -4.99693 220.135 -5 220.021 -5L220.021 0ZM220.323 0.00292969L220.353 5.00284C220.558 5.0016 220.456 5.00098 220.545 5.00098L220.545 0.000976562L220.545 -4.99902C220.477 -4.99902 220.415 -4.99833 220.376 -4.99787C220.328 -4.99731 220.312 -4.99709 220.293 -4.99698L220.323 0.00292969ZM220.545 0.000976562L220.545 5.00098C228.034 5.00108 234.889 7.65861 240.24 12.0866L243.428 8.23438L246.615 4.38217C239.538 -1.4738 230.447 -4.99889 220.545 -4.99902L220.545 0.000976562ZM243.428 8.23438L246.615 12.0866C251.967 7.65852 258.821 5 266.309 5V0V-5C256.406 -5 247.316 -1.47284 240.24 4.38211L243.428 8.23438Z" fill="#E6FF9E" mask="url(#path-1-inside-1_36_573)"/>
</svg>
