<svg width="508" height="508" viewBox="0 0 508 508" fill="none" xmlns="http://www.w3.org/2000/svg">
<path d="M231.799 485.446C208.353 499.3 182.775 506.228 154.533 506.228C126.29 506.228 101.246 499.3 77.2663 485.446C53.82 471.591 35.1695 452.941 20.782 428.961C6.92733 404.982 0 379.404 0 351.695C0 323.986 6.92733 298.408 20.782 274.429C25.5778 266.969 30.3737 259.508 36.2352 252.581C30.3737 245.654 25.5778 238.726 20.782 230.733C7.4602 207.82 0.532871 182.242 0.532871 154.533C0.532871 126.823 7.4602 101.246 21.3148 77.2663C35.1695 53.82 53.82 35.1695 77.7992 20.7819C101.778 6.92729 127.356 0 155.066 0C182.775 0 208.353 6.92729 232.332 20.7819C239.792 25.5778 247.252 30.3737 254.18 36.2353C261.107 30.3737 268.034 25.5778 276.027 20.7819C299.474 6.92729 325.051 0 353.294 0C381.536 0 406.581 6.92729 430.56 20.7819C454.006 34.6366 472.657 53.2871 487.044 77.2663C500.899 101.246 507.826 126.823 507.826 154.533C507.826 182.242 500.899 207.82 487.044 231.799C482.248 239.259 477.453 246.719 471.591 253.647C477.453 260.574 482.248 267.501 487.044 275.494C500.899 298.941 507.826 324.519 507.826 352.761C507.826 380.47 500.899 406.048 487.044 430.027C473.19 453.473 454.539 472.124 430.56 486.512C406.581 500.366 381.003 507.293 353.294 507.293C325.584 507.293 300.007 500.366 276.027 486.512C268.567 481.716 261.107 476.92 254.18 471.058C246.719 476.387 239.792 481.183 231.799 485.446Z" fill="#343434"/>
</svg>
