<svg width="377" height="371" viewBox="0 0 377 371" fill="none" xmlns="http://www.w3.org/2000/svg">
<mask id="path-1-inside-1_36_934" fill="white">
<path d="M295.586 0C310.452 5.14564e-05 323.636 3.64643 336.259 10.9395C348.601 18.2325 358.419 28.0503 365.992 40.6729C373.285 53.2954 376.932 66.7596 376.932 81.3457C376.932 95.9317 373.285 109.396 365.992 122.019C363.601 125.739 361.208 129.459 358.339 132.94C361.108 136.307 363.658 139.93 365.992 143.821C373.285 156.444 376.932 169.908 376.932 184.494C376.932 184.692 376.928 184.89 376.927 185.088C376.928 185.289 376.932 185.491 376.932 185.693C376.932 200.279 373.285 213.744 365.992 226.366C363.7 230.246 361.156 233.874 358.356 237.264C361.218 240.713 363.605 244.191 365.992 248.169C373.285 260.511 376.932 273.975 376.932 288.842C376.932 303.428 373.285 316.892 365.992 329.515C358.699 341.857 348.881 351.674 336.259 359.248C323.636 366.541 310.172 370.187 295.586 370.188C281 370.188 267.536 366.541 254.913 359.248C250.986 356.724 247.059 354.199 243.412 351.113C239.485 353.918 235.838 356.443 231.631 358.687C221.175 364.865 209.913 368.425 197.676 369.369C193.855 369.913 189.956 370.187 185.974 370.188C171.388 370.188 157.923 366.541 145.301 359.248C141.374 356.724 137.446 354.199 133.8 351.113C129.873 353.918 126.226 356.443 122.019 358.687C109.676 365.98 96.2123 369.626 81.3457 369.626C66.4791 369.626 53.2954 365.98 40.6729 358.687C28.3308 351.393 18.513 341.576 10.9395 328.953C3.64646 316.331 0 302.866 0 288.28C2.71797e-05 273.694 3.64641 260.23 10.9395 247.607C13.3312 243.887 15.723 240.167 18.5918 236.685C15.8228 233.319 13.2739 229.695 10.9395 225.805C3.64642 213.182 0 199.718 0 185.132C5.40354e-06 173.6 2.28028 162.77 6.83887 152.502C8.11357 149.563 9.57337 146.671 11.2197 143.821C13.5379 139.898 16.1119 136.231 18.9492 132.809C15.9207 129.212 13.4296 125.608 10.9395 121.458C3.92688 109.396 0.280273 95.9319 0.280273 81.3457C0.280294 66.7596 3.92672 53.2954 11.2197 40.6729C18.5128 28.3308 28.3306 18.513 40.9531 10.9395C53.5757 3.64644 67.04 5.63681e-05 81.626 0C96.212 0 109.676 3.64651 122.299 10.9395C126.226 13.464 130.153 15.9887 133.8 19.0742C137.446 15.9887 141.093 13.464 145.301 10.9395C157.643 3.6465 171.107 0 185.974 0C186.864 2.85879e-06 187.749 0.0138556 188.628 0.0400391C189.494 0.0138429 190.364 3.14949e-06 191.238 0C205.824 0 219.289 3.64651 231.911 10.9395C235.838 13.464 239.766 15.9887 243.412 19.0742C247.059 15.9887 250.706 13.464 254.913 10.9395C267.255 3.64651 280.719 0 295.586 0Z"/>
</mask>
<path d="M295.586 0C310.452 5.14564e-05 323.636 3.64643 336.259 10.9395C348.601 18.2325 358.419 28.0503 365.992 40.6729C373.285 53.2954 376.932 66.7596 376.932 81.3457C376.932 95.9317 373.285 109.396 365.992 122.019C363.601 125.739 361.208 129.459 358.339 132.94C361.108 136.307 363.658 139.93 365.992 143.821C373.285 156.444 376.932 169.908 376.932 184.494C376.932 184.692 376.928 184.89 376.927 185.088C376.928 185.289 376.932 185.491 376.932 185.693C376.932 200.279 373.285 213.744 365.992 226.366C363.7 230.246 361.156 233.874 358.356 237.264C361.218 240.713 363.605 244.191 365.992 248.169C373.285 260.511 376.932 273.975 376.932 288.842C376.932 303.428 373.285 316.892 365.992 329.515C358.699 341.857 348.881 351.674 336.259 359.248C323.636 366.541 310.172 370.187 295.586 370.188C281 370.188 267.536 366.541 254.913 359.248C250.986 356.724 247.059 354.199 243.412 351.113C239.485 353.918 235.838 356.443 231.631 358.687C221.175 364.865 209.913 368.425 197.676 369.369C193.855 369.913 189.956 370.187 185.974 370.188C171.388 370.188 157.923 366.541 145.301 359.248C141.374 356.724 137.446 354.199 133.8 351.113C129.873 353.918 126.226 356.443 122.019 358.687C109.676 365.98 96.2123 369.626 81.3457 369.626C66.4791 369.626 53.2954 365.98 40.6729 358.687C28.3308 351.393 18.513 341.576 10.9395 328.953C3.64646 316.331 0 302.866 0 288.28C2.71797e-05 273.694 3.64641 260.23 10.9395 247.607C13.3312 243.887 15.723 240.167 18.5918 236.685C15.8228 233.319 13.2739 229.695 10.9395 225.805C3.64642 213.182 0 199.718 0 185.132C5.40354e-06 173.6 2.28028 162.77 6.83887 152.502C8.11357 149.563 9.57337 146.671 11.2197 143.821C13.5379 139.898 16.1119 136.231 18.9492 132.809C15.9207 129.212 13.4296 125.608 10.9395 121.458C3.92688 109.396 0.280273 95.9319 0.280273 81.3457C0.280294 66.7596 3.92672 53.2954 11.2197 40.6729C18.5128 28.3308 28.3306 18.513 40.9531 10.9395C53.5757 3.64644 67.04 5.63681e-05 81.626 0C96.212 0 109.676 3.64651 122.299 10.9395C126.226 13.464 130.153 15.9887 133.8 19.0742C137.446 15.9887 141.093 13.464 145.301 10.9395C157.643 3.6465 171.107 0 185.974 0C186.864 2.85879e-06 187.749 0.0138556 188.628 0.0400391C189.494 0.0138429 190.364 3.14949e-06 191.238 0C205.824 0 219.289 3.64651 231.911 10.9395C235.838 13.464 239.766 15.9887 243.412 19.0742C247.059 15.9887 250.706 13.464 254.913 10.9395C267.255 3.64651 280.719 0 295.586 0Z" fill="#D2FC51" fill-opacity="0.2"/>
<path d="M295.586 0V-4V-4V0ZM336.259 10.9395L338.294 7.49575L338.277 7.48579L338.26 7.47599L336.259 10.9395ZM365.992 40.6729L369.456 38.6717L369.439 38.6432L369.422 38.6149L365.992 40.6729ZM376.932 81.3457H380.932V81.3457L376.932 81.3457ZM365.992 122.019L369.357 124.182L369.408 124.102L369.456 124.02L365.992 122.019ZM358.339 132.94L355.252 130.397L353.158 132.939L355.25 135.482L358.339 132.94ZM365.992 143.821L369.456 141.82L369.439 141.792L369.422 141.763L365.992 143.821ZM376.932 184.494H380.932V184.494L376.932 184.494ZM376.927 185.088L372.927 185.061L372.927 185.088L372.927 185.115L376.927 185.088ZM376.932 185.693L380.932 185.693V185.693H376.932ZM365.992 226.366L369.436 228.401L369.446 228.384L369.456 228.367L365.992 226.366ZM358.356 237.264L355.273 234.716L353.164 237.269L355.278 239.817L358.356 237.264ZM365.992 248.169L369.436 246.134L369.429 246.122L369.422 246.111L365.992 248.169ZM376.932 288.842L380.932 288.842V288.842H376.932ZM365.992 329.515L369.436 331.55L369.446 331.533L369.456 331.516L365.992 329.515ZM336.259 359.248L338.26 362.712L338.288 362.695L338.317 362.678L336.259 359.248ZM295.586 370.188V374.188V374.188V370.188ZM254.913 359.248L252.75 362.613L252.83 362.664L252.912 362.712L254.913 359.248ZM243.412 351.113L245.996 348.06L243.62 346.049L241.087 347.858L243.412 351.113ZM231.631 358.687L229.749 355.157L229.671 355.198L229.596 355.243L231.631 358.687ZM197.676 369.369L197.368 365.381L197.24 365.391L197.112 365.409L197.676 369.369ZM185.974 370.188V374.188H185.974L185.974 370.188ZM145.301 359.248L143.138 362.613L143.218 362.664L143.3 362.712L145.301 359.248ZM133.8 351.113L136.384 348.06L134.008 346.049L131.475 347.858L133.8 351.113ZM122.019 358.687L120.136 355.157L120.059 355.198L119.984 355.243L122.019 358.687ZM81.3457 369.626L81.3457 373.626H81.3457V369.626ZM40.6729 358.687L38.6379 362.13L38.6548 362.14L38.6717 362.15L40.6729 358.687ZM10.9395 328.953L7.47599 330.954L7.4925 330.983L7.50948 331.011L10.9395 328.953ZM0 288.28H-4V288.28H0ZM10.9395 247.607L7.57474 245.444L7.52345 245.524L7.47599 245.606L10.9395 247.607ZM18.5918 236.685L21.679 239.228L23.773 236.686L21.6808 234.143L18.5918 236.685ZM10.9395 225.805L7.47599 227.806L7.4925 227.834L7.50948 227.863L10.9395 225.805ZM0 185.132H-4V185.132H0ZM6.83887 152.502L10.4948 154.125L10.5017 154.109L10.5085 154.094L6.83887 152.502ZM11.2197 143.821L7.77602 141.786L7.76606 141.803L7.75627 141.82L11.2197 143.821ZM18.9492 132.809L22.0284 135.362L24.1617 132.789L22.0091 130.232L18.9492 132.809ZM10.9395 121.458L7.48142 123.468L7.49529 123.492L7.50948 123.516L10.9395 121.458ZM0.280273 81.3457L-3.71973 81.3457V81.3457H0.280273ZM11.2197 40.6729L7.77602 38.6379L7.76606 38.6548L7.75626 38.6717L11.2197 40.6729ZM40.9531 10.9395L38.952 7.47599L38.9234 7.4925L38.8951 7.50949L40.9531 10.9395ZM81.626 0V-4H81.626L81.626 0ZM122.299 10.9395L124.462 7.57474L124.382 7.52344L124.3 7.47598L122.299 10.9395ZM133.8 19.0742L131.216 22.1278L133.8 24.314L136.384 22.1278L133.8 19.0742ZM145.301 10.9395L143.266 7.49574L143.254 7.50257L143.243 7.50948L145.301 10.9395ZM185.974 0L185.974 -4H185.974V0ZM188.628 0.0400391L188.509 4.03827L188.629 4.04184L188.749 4.03821L188.628 0.0400391ZM191.238 0V-4H191.238L191.238 0ZM231.911 10.9395L234.074 7.57474L233.994 7.52344L233.912 7.47598L231.911 10.9395ZM243.412 19.0742L240.828 22.1278L243.412 24.314L245.996 22.1278L243.412 19.0742ZM254.913 10.9395L252.878 7.49574L252.867 7.50257L252.855 7.50948L254.913 10.9395ZM295.586 0V4C309.736 4.00005 322.231 7.45438 334.258 14.4029L336.259 10.9395L338.26 7.47599C325.041 -0.161516 311.169 -3.99995 295.586 -4V0ZM336.259 10.9395L334.224 14.3832C345.977 21.3283 355.322 30.6631 362.562 42.7308L365.992 40.6729L369.422 38.6149C361.516 25.4374 351.225 15.1368 338.294 7.49575L336.259 10.9395ZM365.992 40.6729L362.529 42.674C369.474 54.694 372.932 67.4689 372.932 81.3457L376.932 81.3457L380.932 81.3457C380.932 66.0504 377.097 51.8968 369.456 38.6717L365.992 40.6729ZM376.932 81.3457H372.932C372.932 95.2225 369.474 107.997 362.529 120.017L365.992 122.019L369.456 124.02C377.097 110.795 380.932 96.641 380.932 81.3457H376.932ZM365.992 122.019L362.627 119.856C360.217 123.605 357.946 127.126 355.252 130.397L358.339 132.94L361.426 135.484C364.469 131.791 366.984 127.873 369.357 124.182L365.992 122.019ZM358.339 132.94L355.25 135.482C357.889 138.69 360.325 142.151 362.562 145.879L365.992 143.821L369.422 141.763C366.99 137.709 364.327 133.924 361.428 130.399L358.339 132.94ZM365.992 143.821L362.529 145.822C369.474 157.842 372.932 170.617 372.932 184.494L376.932 184.494L380.932 184.494C380.932 169.199 377.097 155.045 369.456 141.82L365.992 143.821ZM376.932 184.494H372.932C372.932 184.686 372.929 184.793 372.927 185.061L376.927 185.088L380.927 185.115C380.928 184.988 380.932 184.699 380.932 184.494H376.932ZM376.927 185.088L372.927 185.115C372.929 185.385 372.932 185.498 372.932 185.693H376.932H380.932C380.932 185.485 380.928 185.194 380.927 185.061L376.927 185.088ZM376.932 185.693L372.932 185.693C372.932 199.57 369.474 212.345 362.529 224.365L365.992 226.366L369.456 228.367C377.097 215.142 380.932 200.989 380.932 185.693L376.932 185.693ZM365.992 226.366L362.548 224.331C360.36 228.035 357.936 231.492 355.273 234.716L358.356 237.264L361.44 239.811C364.376 236.257 367.039 232.457 369.436 228.401L365.992 226.366ZM358.356 237.264L355.278 239.817C357.984 243.08 360.257 246.385 362.562 250.227L365.992 248.169L369.422 246.111C366.953 241.996 364.451 238.346 361.435 234.71L358.356 237.264ZM365.992 248.169L362.548 250.204C369.467 261.912 372.932 274.671 372.932 288.842H376.932H380.932C380.932 273.28 377.103 259.11 369.436 246.134L365.992 248.169ZM376.932 288.842L372.932 288.842C372.932 302.719 369.474 315.494 362.529 327.514L365.992 329.515L369.456 331.516C377.097 318.291 380.932 304.137 380.932 288.842L376.932 288.842ZM365.992 329.515L362.548 327.48C355.603 339.233 346.269 348.577 334.201 355.818L336.259 359.248L338.317 362.678C351.494 354.772 361.795 344.48 369.436 331.55L365.992 329.515ZM336.259 359.248L334.258 355.785C322.238 362.729 309.463 366.187 295.586 366.188V370.188V374.188C310.881 374.187 325.035 370.353 338.26 362.712L336.259 359.248ZM295.586 370.188V366.188C281.709 366.188 268.934 362.729 256.914 355.785L254.913 359.248L252.912 362.712C266.137 370.353 280.291 374.188 295.586 374.188V370.188ZM254.913 359.248L257.076 355.883C253.116 353.337 249.41 350.949 245.996 348.06L243.412 351.113L240.828 354.167C244.707 357.449 248.856 360.11 252.75 362.613L254.913 359.248ZM243.412 351.113L241.087 347.858C237.175 350.652 233.709 353.045 229.749 355.157L231.631 358.687L233.513 362.216C237.968 359.84 241.795 357.184 245.737 354.368L243.412 351.113ZM231.631 358.687L229.596 355.243C219.667 361.11 208.997 364.484 197.368 365.381L197.676 369.369L197.983 373.357C210.829 372.366 222.682 368.621 233.666 362.13L231.631 358.687ZM197.676 369.369L197.112 365.409C193.482 365.926 189.772 366.188 185.974 366.188L185.974 370.188L185.974 374.188C190.141 374.188 194.228 373.9 198.239 373.329L197.676 369.369ZM185.974 370.188V366.188C172.097 366.188 159.322 362.729 147.302 355.785L145.301 359.248L143.3 362.712C156.525 370.353 170.678 374.188 185.974 374.188V370.188ZM145.301 359.248L147.464 355.883C143.503 353.337 139.798 350.949 136.384 348.06L133.8 351.113L131.216 354.167C135.095 357.449 139.244 360.11 143.138 362.613L145.301 359.248ZM133.8 351.113L131.475 347.858C127.563 350.652 124.097 353.045 120.136 355.157L122.019 358.687L123.901 362.216C128.355 359.84 132.182 357.184 136.125 354.368L133.8 351.113ZM122.019 358.687L119.984 355.243C108.275 362.161 95.5169 365.626 81.3457 365.626V369.626V373.626C96.9077 373.626 111.078 369.798 124.053 362.13L122.019 358.687ZM81.3457 369.626L81.3457 365.626C67.1955 365.626 54.7003 362.172 42.674 355.223L40.6729 358.687L38.6717 362.15C51.8906 369.788 65.7626 373.626 81.3457 373.626L81.3457 369.626ZM40.6729 358.687L42.7078 355.243C30.9545 348.298 21.6101 338.963 14.3694 326.895L10.9395 328.953L7.50948 331.011C15.416 344.189 25.707 354.489 38.6379 362.13L40.6729 358.687ZM10.9395 328.953L14.4029 326.952C7.45803 314.932 4 302.157 4 288.28H0H-4C-4 303.576 -0.165117 317.729 7.47599 330.954L10.9395 328.953ZM0 288.28H4C4.00003 274.403 7.45799 261.629 14.4029 249.609L10.9395 247.607L7.47599 245.606C-0.165174 258.831 -3.99997 272.985 -4 288.28H0ZM10.9395 247.607L14.3042 249.77C16.7154 246.02 18.9844 242.499 21.679 239.228L18.5918 236.685L15.5046 234.141C12.4616 237.834 9.94696 241.754 7.57474 245.444L10.9395 247.607ZM18.5918 236.685L21.6808 234.143C19.042 230.936 16.6062 227.475 14.3694 223.747L10.9395 225.805L7.50948 227.863C9.9415 231.916 12.6035 235.702 15.5028 239.226L18.5918 236.685ZM10.9395 225.805L14.4029 223.804C7.458 211.783 4 199.009 4 185.132H0H-4C-4 200.427 -0.165154 214.581 7.47599 227.806L10.9395 225.805ZM0 185.132H4C4.00001 174.148 6.16764 163.872 10.4948 154.125L6.83887 152.502L3.18297 150.879C-1.60709 161.668 -3.99999 173.052 -4 185.132H0ZM6.83887 152.502L10.5085 154.094C11.7207 151.299 13.1113 148.543 14.6832 145.822L11.2197 143.821L7.75627 141.82C6.03548 144.798 4.50642 147.828 3.16927 150.91L6.83887 152.502ZM11.2197 143.821L14.6634 145.856C16.8768 142.11 19.3295 138.617 22.0284 135.362L18.9492 132.809L15.87 130.255C12.8942 133.844 10.199 137.686 7.77602 141.786L11.2197 143.821ZM18.9492 132.809L22.0091 130.232C19.1434 126.829 16.773 123.406 14.3694 119.4L10.9395 121.458L7.50948 123.516C10.0861 127.81 12.698 131.595 15.8894 135.385L18.9492 132.809ZM10.9395 121.458L14.3975 119.448C7.74649 108.008 4.28027 95.2388 4.28027 81.3457H0.280273H-3.71973C-3.71973 96.6249 0.10728 110.785 7.48142 123.468L10.9395 121.458ZM0.280273 81.3457L4.28027 81.3457C4.28029 67.4689 7.7383 54.694 14.6832 42.674L11.2197 40.6729L7.75626 38.6717C0.115142 51.8968 -3.71971 66.0504 -3.71973 81.3457L0.280273 81.3457ZM11.2197 40.6729L14.6634 42.7078C21.6085 30.9546 30.9434 21.6101 43.0111 14.3694L40.9531 10.9395L38.8951 7.50949C25.7177 15.416 15.417 25.707 7.77602 38.6379L11.2197 40.6729ZM40.9531 10.9395L42.9542 14.4029C54.9742 7.45802 67.7492 4.00005 81.626 4L81.626 0L81.626 -4C66.3307 -3.99994 52.1771 -0.165149 38.952 7.47599L40.9531 10.9395ZM81.626 0V4C95.5027 4 108.278 7.45809 120.298 14.4029L122.299 10.9395L124.3 7.47598C111.075 -0.165058 96.9213 -4 81.626 -4V0ZM122.299 10.9395L120.136 14.3042C124.096 16.8502 127.802 19.2389 131.216 22.1278L133.8 19.0742L136.384 16.0207C132.505 12.7385 128.355 10.0778 124.462 7.57474L122.299 10.9395ZM133.8 19.0742L136.384 22.1278C139.834 19.2084 143.297 16.8064 147.359 14.3694L145.301 10.9395L143.243 7.50948C138.889 10.1216 135.059 12.769 131.216 16.0207L133.8 19.0742ZM145.301 10.9395L147.336 14.3832C159.044 7.46466 171.803 4 185.974 4V0V-4C170.412 -4 156.242 -0.171657 143.266 7.49574L145.301 10.9395ZM185.974 0L185.974 4C186.823 4 187.668 4.01321 188.509 4.03827L188.628 0.0400391L188.747 -3.95819C187.83 -3.9855 186.906 -4 185.974 -4L185.974 0ZM188.628 0.0400391L188.749 4.03821C189.577 4.01317 190.406 4 191.238 4L191.238 0L191.238 -4C190.322 -4 189.411 -3.98549 188.507 -3.95813L188.628 0.0400391ZM191.238 0V4C205.115 4 217.89 7.45808 229.91 14.4029L231.911 10.9395L233.912 7.47598C220.687 -0.165065 206.534 -4 191.238 -4V0ZM231.911 10.9395L229.748 14.3042C233.709 16.8502 237.414 19.2389 240.828 22.1278L243.412 19.0742L245.996 16.0207C242.117 12.7385 237.968 10.0778 234.074 7.57474L231.911 10.9395ZM243.412 19.0742L245.996 22.1278C249.446 19.2084 252.909 16.8064 256.971 14.3694L254.913 10.9395L252.855 7.50948C248.502 10.1216 244.671 12.769 240.828 16.0207L243.412 19.0742ZM254.913 10.9395L256.948 14.3832C268.656 7.46467 281.415 4 295.586 4V0V-4C280.024 -4 265.854 -0.17165 252.878 7.49574L254.913 10.9395Z" fill="#D2FC51" mask="url(#path-1-inside-1_36_934)"/>
<line x1="189.566" y1="145.664" x2="189.566" y2="224.523" stroke="#ACCE43" stroke-width="9.6786"/>
<line x1="227.895" y1="185.859" x2="149.036" y2="185.859" stroke="#ACCE43" stroke-width="9.6786"/>
</svg>
