<svg width="1058" height="137" viewBox="0 0 1058 137" fill="none" xmlns="http://www.w3.org/2000/svg">
<mask id="path-1-inside-1_35_128" fill="white">
<path d="M1015.96 0C1038.91 0 1057.51 18.6019 1057.51 41.5488C1057.51 51.7157 1053.85 61.027 1047.79 68.248C1053.85 75.4693 1057.51 84.7818 1057.51 94.9492C1057.51 117.896 1038.91 136.499 1015.96 136.499C1005.38 136.499 995.732 132.544 988.397 126.036C981.063 132.544 971.412 136.498 960.836 136.498C950.635 136.498 941.295 132.82 934.063 126.721C926.832 132.82 917.492 136.498 907.292 136.498C897.562 136.498 888.613 133.152 881.532 127.55C874.451 133.152 865.503 136.498 855.772 136.498C845.572 136.498 836.232 132.82 829.001 126.721C821.77 132.82 812.429 136.498 802.229 136.498C791.652 136.498 782 132.544 774.666 126.036C767.332 132.544 757.681 136.499 747.104 136.499C736.904 136.499 727.563 132.82 720.332 126.721C713.101 132.82 703.761 136.499 693.561 136.499C682.984 136.499 673.332 132.544 665.997 126.036C658.663 132.544 649.012 136.498 638.436 136.498C628.235 136.498 618.894 132.82 611.663 126.721C604.432 132.82 595.092 136.498 584.892 136.498C574.315 136.498 564.664 132.545 557.329 126.037C549.995 132.544 540.344 136.499 529.768 136.499C519.567 136.499 510.226 132.82 502.995 126.721C495.764 132.82 486.424 136.499 476.224 136.499C465.647 136.499 455.995 132.545 448.66 126.037C441.326 132.544 431.675 136.499 421.099 136.499C410.898 136.499 401.557 132.82 394.326 126.721C387.095 132.82 377.755 136.499 367.555 136.499C356.978 136.499 347.326 132.545 339.991 126.037C332.657 132.544 323.007 136.498 312.431 136.498C302.23 136.498 292.889 132.82 285.658 126.721C278.427 132.82 269.087 136.498 258.887 136.498C248.31 136.498 238.658 132.545 231.323 126.037C223.989 132.545 214.337 136.499 203.761 136.499C193.56 136.499 184.22 132.82 176.989 126.721C169.758 132.82 160.418 136.499 150.217 136.499C139.64 136.499 129.989 132.545 122.654 126.037C115.32 132.544 105.669 136.498 95.0928 136.498C84.8922 136.498 75.5523 132.82 68.3213 126.721C61.0902 132.82 51.7496 136.498 41.5488 136.498C18.602 136.498 0 117.896 0 94.9492C4.15442e-05 84.7824 3.65356 75.4701 9.7168 68.249C3.65357 61.028 1.38669e-06 51.7157 0 41.5488C0 18.602 18.602 0.000169076 41.5488 0C51.7495 0 61.0902 3.67781 68.3213 9.77734C75.5523 3.67803 84.8923 4.8578e-05 95.0928 0C105.669 0 115.32 3.95381 122.654 10.4609C129.989 3.95343 139.64 9.37978e-05 150.217 0C160.417 0 169.758 3.67787 176.989 9.77734C184.22 3.678 193.56 0.000109987 203.761 0C214.337 0 223.989 3.9536 231.323 10.4609C238.658 3.95326 248.31 0 258.887 0C269.087 9.20726e-05 278.427 3.67798 285.658 9.77734C292.889 3.67789 302.23 0 312.431 0C323.007 0.000111172 332.658 3.95371 339.992 10.4609C347.327 3.95361 356.978 0 367.555 0C377.755 0.000113548 387.095 3.678 394.326 9.77734C401.557 3.67787 410.898 0 421.099 0C431.675 9.78695e-05 441.326 3.95372 448.66 10.4609C455.995 3.9533 465.647 0 476.224 0C486.424 9.82442e-05 495.764 3.67801 502.995 9.77734C510.226 3.67785 519.567 0 529.768 0C540.344 8.17164e-05 549.995 3.95373 557.329 10.4609C564.664 3.95338 574.315 5.71493e-05 584.892 0C595.092 0 604.432 3.67732 611.663 9.77637C618.894 3.67701 628.235 0 638.436 0C649.012 2.75558e-05 658.663 3.9537 665.997 10.4609C673.331 3.95338 682.983 7.66057e-05 693.56 0C703.76 0 713.101 3.67779 720.332 9.77734C727.563 3.67783 736.904 0 747.104 0C757.681 9.50197e-05 767.332 3.95368 774.666 10.4609C782 3.95342 791.652 1.41575e-05 802.229 0C812.429 0 821.769 3.67802 829 9.77734C836.231 3.6777 845.572 3.75805e-05 855.772 0C865.503 0 874.451 3.34487 881.532 8.94727C888.613 3.34483 897.562 0 907.292 0C917.493 1.82054e-05 926.832 3.67798 934.063 9.77734C941.295 3.67784 950.635 0 960.836 0C971.412 0.000103571 981.063 3.95367 988.397 10.4609C995.732 3.9534 1005.38 5.77877e-07 1015.96 0Z"/>
</mask>
<path d="M1015.96 0C1038.91 0 1057.51 18.6019 1057.51 41.5488C1057.51 51.7157 1053.85 61.027 1047.79 68.248C1053.85 75.4693 1057.51 84.7818 1057.51 94.9492C1057.51 117.896 1038.91 136.499 1015.96 136.499C1005.38 136.499 995.732 132.544 988.397 126.036C981.063 132.544 971.412 136.498 960.836 136.498C950.635 136.498 941.295 132.82 934.063 126.721C926.832 132.82 917.492 136.498 907.292 136.498C897.562 136.498 888.613 133.152 881.532 127.55C874.451 133.152 865.503 136.498 855.772 136.498C845.572 136.498 836.232 132.82 829.001 126.721C821.77 132.82 812.429 136.498 802.229 136.498C791.652 136.498 782 132.544 774.666 126.036C767.332 132.544 757.681 136.499 747.104 136.499C736.904 136.499 727.563 132.82 720.332 126.721C713.101 132.82 703.761 136.499 693.561 136.499C682.984 136.499 673.332 132.544 665.997 126.036C658.663 132.544 649.012 136.498 638.436 136.498C628.235 136.498 618.894 132.82 611.663 126.721C604.432 132.82 595.092 136.498 584.892 136.498C574.315 136.498 564.664 132.545 557.329 126.037C549.995 132.544 540.344 136.499 529.768 136.499C519.567 136.499 510.226 132.82 502.995 126.721C495.764 132.82 486.424 136.499 476.224 136.499C465.647 136.499 455.995 132.545 448.66 126.037C441.326 132.544 431.675 136.499 421.099 136.499C410.898 136.499 401.557 132.82 394.326 126.721C387.095 132.82 377.755 136.499 367.555 136.499C356.978 136.499 347.326 132.545 339.991 126.037C332.657 132.544 323.007 136.498 312.431 136.498C302.23 136.498 292.889 132.82 285.658 126.721C278.427 132.82 269.087 136.498 258.887 136.498C248.31 136.498 238.658 132.545 231.323 126.037C223.989 132.545 214.337 136.499 203.761 136.499C193.56 136.499 184.22 132.82 176.989 126.721C169.758 132.82 160.418 136.499 150.217 136.499C139.64 136.499 129.989 132.545 122.654 126.037C115.32 132.544 105.669 136.498 95.0928 136.498C84.8922 136.498 75.5523 132.82 68.3213 126.721C61.0902 132.82 51.7496 136.498 41.5488 136.498C18.602 136.498 0 117.896 0 94.9492C4.15442e-05 84.7824 3.65356 75.4701 9.7168 68.249C3.65357 61.028 1.38669e-06 51.7157 0 41.5488C0 18.602 18.602 0.000169076 41.5488 0C51.7495 0 61.0902 3.67781 68.3213 9.77734C75.5523 3.67803 84.8923 4.8578e-05 95.0928 0C105.669 0 115.32 3.95381 122.654 10.4609C129.989 3.95343 139.64 9.37978e-05 150.217 0C160.417 0 169.758 3.67787 176.989 9.77734C184.22 3.678 193.56 0.000109987 203.761 0C214.337 0 223.989 3.9536 231.323 10.4609C238.658 3.95326 248.31 0 258.887 0C269.087 9.20726e-05 278.427 3.67798 285.658 9.77734C292.889 3.67789 302.23 0 312.431 0C323.007 0.000111172 332.658 3.95371 339.992 10.4609C347.327 3.95361 356.978 0 367.555 0C377.755 0.000113548 387.095 3.678 394.326 9.77734C401.557 3.67787 410.898 0 421.099 0C431.675 9.78695e-05 441.326 3.95372 448.66 10.4609C455.995 3.9533 465.647 0 476.224 0C486.424 9.82442e-05 495.764 3.67801 502.995 9.77734C510.226 3.67785 519.567 0 529.768 0C540.344 8.17164e-05 549.995 3.95373 557.329 10.4609C564.664 3.95338 574.315 5.71493e-05 584.892 0C595.092 0 604.432 3.67732 611.663 9.77637C618.894 3.67701 628.235 0 638.436 0C649.012 2.75558e-05 658.663 3.9537 665.997 10.4609C673.331 3.95338 682.983 7.66057e-05 693.56 0C703.76 0 713.101 3.67779 720.332 9.77734C727.563 3.67783 736.904 0 747.104 0C757.681 9.50197e-05 767.332 3.95368 774.666 10.4609C782 3.95342 791.652 1.41575e-05 802.229 0C812.429 0 821.769 3.67802 829 9.77734C836.231 3.6777 845.572 3.75805e-05 855.772 0C865.503 0 874.451 3.34487 881.532 8.94727C888.613 3.34483 897.562 0 907.292 0C917.493 1.82054e-05 926.832 3.67798 934.063 9.77734C941.295 3.67784 950.635 0 960.836 0C971.412 0.000103571 981.063 3.95367 988.397 10.4609C995.732 3.9534 1005.38 5.77877e-07 1015.96 0Z" fill="#D2FC51" fill-opacity="0.2"/>
<path d="M1015.96 0V-2.49565H1015.96V0ZM1057.51 41.5488L1060 41.5488V41.5488H1057.51ZM1047.79 68.248L1045.88 66.6432L1044.53 68.2481L1045.88 69.8529L1047.79 68.248ZM1057.51 94.9492H1060.01V94.9492L1057.51 94.9492ZM1015.96 136.499V138.995H1015.96V136.499ZM988.397 126.036L990.054 124.169L988.397 122.7L986.741 124.169L988.397 126.036ZM960.836 136.498V138.994H960.836V136.498ZM934.063 126.721L935.673 124.813L934.063 123.456L932.454 124.813L934.063 126.721ZM907.292 136.498V138.994H907.292V136.498ZM881.532 127.55L883.081 125.593L881.532 124.367L879.984 125.593L881.532 127.55ZM855.772 136.498V138.994H855.772V136.498ZM829.001 126.721L830.61 124.813L829.001 123.456L827.392 124.813L829.001 126.721ZM802.229 136.498V138.994H802.229V136.498ZM774.666 126.036L776.322 124.169L774.666 122.7L773.01 124.169L774.666 126.036ZM747.104 136.499V138.995H747.104V136.499ZM720.332 126.721L721.941 124.813L720.332 123.456L718.723 124.813L720.332 126.721ZM693.561 136.499V138.995H693.561V136.499ZM665.997 126.036L667.653 124.169L665.997 122.7L664.341 124.169L665.997 126.036ZM638.436 136.498V138.994H638.436V136.498ZM611.663 126.721L613.272 124.813L611.663 123.456L610.054 124.813L611.663 126.721ZM584.892 136.498V134.002V136.498ZM557.329 126.037L558.985 124.17L557.329 122.701L555.673 124.17L557.329 126.037ZM529.768 136.499V138.995H529.768V136.499ZM502.995 126.721L504.604 124.813L502.995 123.456L501.386 124.813L502.995 126.721ZM476.224 136.499V138.995H476.224L476.224 136.499ZM448.66 126.037L450.316 124.17L448.66 122.701L447.004 124.17L448.66 126.037ZM421.099 136.499V138.995H421.099L421.099 136.499ZM394.326 126.721L395.935 124.813L394.326 123.456L392.717 124.813L394.326 126.721ZM367.555 136.499V138.995H367.555L367.555 136.499ZM339.991 126.037L341.648 124.17L339.991 122.701L338.335 124.17L339.991 126.037ZM312.431 136.498V138.994H312.431L312.431 136.498ZM285.658 126.721L287.267 124.813L285.658 123.456L284.049 124.813L285.658 126.721ZM258.887 136.498V138.994H258.887L258.887 136.498ZM231.323 126.037L232.98 124.17L231.323 122.701L229.667 124.17L231.323 126.037ZM203.761 136.499L203.761 138.995H203.761V136.499ZM176.989 126.721L178.598 124.813L176.989 123.456L175.38 124.813L176.989 126.721ZM150.217 136.499L150.217 138.995H150.217V136.499ZM122.654 126.037L124.311 124.17L122.654 122.701L120.998 124.17L122.654 126.037ZM95.0928 136.498L95.0928 138.994H95.0928V136.498ZM68.3213 126.721L69.9304 124.813L68.3213 123.456L66.7122 124.813L68.3213 126.721ZM41.5488 136.498L41.5488 138.994H41.5488V136.498ZM0 94.9492L-2.49565 94.9492V94.9492H0ZM9.7168 68.249L11.628 69.8538L12.9755 68.249L11.6281 66.6442L9.7168 68.249ZM0 41.5488H-2.49565V41.5488H0ZM41.5488 0V-2.49565H41.5488L41.5488 0ZM68.3213 9.77734L66.7122 11.685L68.3213 13.0423L69.9304 11.685L68.3213 9.77734ZM95.0928 0V-2.49565H95.0928L95.0928 0ZM122.654 10.4609L120.998 12.3278L122.654 13.7973L124.311 12.3277L122.654 10.4609ZM150.217 0V-2.49565H150.217L150.217 0ZM176.989 9.77734L175.38 11.685L176.989 13.0423L178.598 11.685L176.989 9.77734ZM203.761 0V-2.49565H203.761L203.761 0ZM231.323 10.4609L229.667 12.3277L231.323 13.7973L232.98 12.3277L231.323 10.4609ZM258.887 0L258.887 -2.49565H258.887V0ZM285.658 9.77734L284.049 11.685L285.658 13.0423L287.267 11.685L285.658 9.77734ZM312.431 0L312.431 -2.49565H312.431V0ZM339.992 10.4609L338.336 12.3277L339.992 13.7973L341.648 12.3277L339.992 10.4609ZM367.555 0L367.555 -2.49565H367.555V0ZM394.326 9.77734L392.717 11.685L394.326 13.0423L395.935 11.685L394.326 9.77734ZM421.099 0L421.099 -2.49565H421.099V0ZM448.66 10.4609L447.004 12.3277L448.66 13.7973L450.316 12.3277L448.66 10.4609ZM476.224 0L476.224 -2.49565H476.224V0ZM502.995 9.77734L501.386 11.685L502.995 13.0423L504.604 11.685L502.995 9.77734ZM529.768 0V-2.49565V-2.49565V0ZM557.329 10.4609L555.673 12.3278L557.329 13.7973L558.985 12.3277L557.329 10.4609ZM584.892 0V-2.49565V-2.49565V0ZM611.663 9.77637L610.054 11.684L611.663 13.0412L613.272 11.684L611.663 9.77637ZM638.436 0V-2.49565V-2.49565V0ZM665.997 10.4609L664.341 12.3278L665.997 13.7973L667.653 12.3277L665.997 10.4609ZM693.56 0V-2.49565V-2.49565V0ZM720.332 9.77734L718.723 11.685L720.332 13.0423L721.941 11.685L720.332 9.77734ZM747.104 0V-2.49565V-2.49565V0ZM774.666 10.4609L773.01 12.3277L774.666 13.7973L776.322 12.3277L774.666 10.4609ZM802.229 0V-2.49565V-2.49565V0ZM829 9.77734L827.391 11.685L829 13.0423L830.609 11.685L829 9.77734ZM855.772 0V-2.49565V-2.49565V0ZM881.532 8.94727L879.984 10.9044L881.532 12.1296L883.081 10.9044L881.532 8.94727ZM907.292 0V-2.49565V-2.49565V0ZM934.063 9.77734L932.454 11.685L934.063 13.0423L935.673 11.685L934.063 9.77734ZM960.836 0V-2.49565V-2.49565V0ZM988.397 10.4609L986.741 12.3277L988.397 13.7973L990.054 12.3277L988.397 10.4609ZM1015.96 0V2.49565C1037.53 2.49565 1055.01 19.9802 1055.01 41.5488H1057.51H1060C1060 17.2236 1040.29 -2.49565 1015.96 -2.49565V0ZM1057.51 41.5488L1055.01 41.5488C1055.01 51.1064 1051.58 59.8544 1045.88 66.6432L1047.79 68.248L1049.7 69.8529C1056.13 62.1995 1060 52.3249 1060 41.5488L1057.51 41.5488ZM1047.79 68.248L1045.88 69.8529C1051.58 76.6418 1055.01 85.391 1055.01 94.9492L1057.51 94.9492L1060.01 94.9492C1060.01 84.1726 1056.13 74.2967 1049.7 66.6432L1047.79 68.248ZM1057.51 94.9492H1055.01C1055.01 116.518 1037.53 134.003 1015.96 134.003V136.499V138.995C1040.29 138.995 1060.01 119.274 1060.01 94.9492H1057.51ZM1015.96 136.499V134.003C1006.02 134.003 996.95 130.288 990.054 124.169L988.397 126.036L986.741 127.903C994.514 134.8 1004.75 138.995 1015.96 138.995V136.499ZM988.397 126.036L986.741 124.169C979.845 130.288 970.778 134.002 960.836 134.002V136.498V138.994C972.046 138.994 982.281 134.8 990.054 127.903L988.397 126.036ZM960.836 136.498V134.002C951.246 134.002 942.471 130.547 935.673 124.813L934.063 126.721L932.454 128.628C940.118 135.093 950.024 138.994 960.836 138.994V136.498ZM934.063 126.721L932.454 124.813C925.656 130.547 916.881 134.002 907.292 134.002V136.498V138.994C918.104 138.994 928.009 135.093 935.673 128.628L934.063 126.721ZM907.292 136.498V134.002C898.144 134.002 889.737 130.859 883.081 125.593L881.532 127.55L879.984 129.507C887.489 135.446 896.979 138.994 907.292 138.994V136.498ZM881.532 127.55L879.984 125.593C873.328 130.859 864.921 134.002 855.772 134.002V136.498V138.994C866.085 138.994 875.575 135.446 883.081 129.507L881.532 127.55ZM855.772 136.498V134.002C846.183 134.002 837.408 130.547 830.61 124.813L829.001 126.721L827.392 128.628C835.056 135.093 844.961 138.994 855.772 138.994V136.498ZM829.001 126.721L827.392 124.813C820.594 130.547 811.818 134.002 802.229 134.002V136.498V138.994C813.04 138.994 822.946 135.093 830.61 128.628L829.001 126.721ZM802.229 136.498V134.002C792.286 134.002 783.218 130.288 776.322 124.169L774.666 126.036L773.01 127.903C780.783 134.8 791.018 138.994 802.229 138.994V136.498ZM774.666 126.036L773.01 124.169C766.114 130.288 757.047 134.003 747.104 134.003V136.499V138.995C758.315 138.995 768.549 134.799 776.322 127.903L774.666 126.036ZM747.104 136.499V134.003C737.515 134.003 728.739 130.548 721.941 124.813L720.332 126.721L718.723 128.628C726.387 135.093 736.293 138.995 747.104 138.995V136.499ZM720.332 126.721L718.723 124.813C711.925 130.547 703.15 134.003 693.561 134.003V136.499V138.995C704.372 138.995 714.277 135.093 721.941 128.628L720.332 126.721ZM693.561 136.499V134.003C683.618 134.003 674.549 130.288 667.653 124.169L665.997 126.036L664.341 127.903C672.114 134.8 682.35 138.995 693.561 138.995V136.499ZM665.997 126.036L664.341 124.169C657.445 130.288 648.378 134.002 638.436 134.002V136.498V138.994C649.646 138.994 659.88 134.799 667.653 127.903L665.997 126.036ZM638.436 136.498V134.002C628.846 134.002 620.07 130.547 613.272 124.813L611.663 126.721L610.054 128.628C617.718 135.093 627.624 138.994 638.436 138.994V136.498ZM611.663 126.721L610.054 124.813C603.256 130.547 594.481 134.002 584.892 134.002V136.498V138.994C595.703 138.994 605.608 135.093 613.272 128.628L611.663 126.721ZM584.892 136.498V134.002C574.949 134.002 565.881 130.289 558.985 124.17L557.329 126.037L555.673 127.904C563.446 134.801 573.681 138.994 584.892 138.994V136.498ZM557.329 126.037L555.673 124.17C548.777 130.289 539.71 134.003 529.768 134.003V136.499V138.995C540.978 138.995 551.213 134.8 558.985 127.904L557.329 126.037ZM529.768 136.499V134.003C520.178 134.003 511.402 130.548 504.604 124.813L502.995 126.721L501.386 128.628C509.05 135.093 518.956 138.995 529.768 138.995V136.499ZM502.995 126.721L501.386 124.813C494.588 130.547 485.813 134.003 476.224 134.003L476.224 136.499L476.224 138.995C487.035 138.995 496.94 135.093 504.604 128.628L502.995 126.721ZM476.224 136.499V134.003C466.281 134.003 457.212 130.289 450.316 124.17L448.66 126.037L447.004 127.904C454.777 134.801 465.013 138.995 476.224 138.995V136.499ZM448.66 126.037L447.004 124.17C440.108 130.289 431.041 134.003 421.099 134.003L421.099 136.499L421.099 138.995C432.309 138.995 442.544 134.8 450.316 127.904L448.66 126.037ZM421.099 136.499V134.003C411.509 134.003 402.734 130.548 395.935 124.813L394.326 126.721L392.717 128.628C400.381 135.093 410.287 138.995 421.099 138.995V136.499ZM394.326 126.721L392.717 124.813C385.919 130.547 377.144 134.003 367.555 134.003L367.555 136.499L367.555 138.995C378.366 138.995 388.271 135.093 395.935 128.628L394.326 126.721ZM367.555 136.499V134.003C357.612 134.003 348.543 130.289 341.648 124.17L339.991 126.037L338.335 127.904C346.108 134.801 356.344 138.995 367.555 138.995V136.499ZM339.991 126.037L338.335 124.17C331.439 130.288 322.372 134.002 312.431 134.002L312.431 136.498L312.431 138.994C323.641 138.994 333.875 134.8 341.647 127.904L339.991 126.037ZM312.431 136.498V134.002C302.841 134.002 294.065 130.547 287.267 124.813L285.658 126.721L284.049 128.628C291.713 135.093 301.619 138.994 312.431 138.994V136.498ZM285.658 126.721L284.049 124.813C277.251 130.547 268.476 134.002 258.887 134.002L258.887 136.498L258.887 138.994C269.698 138.994 279.603 135.093 287.267 128.628L285.658 126.721ZM258.887 136.498V134.002C248.944 134.002 239.875 130.289 232.98 124.17L231.323 126.037L229.667 127.904C237.44 134.801 247.676 138.994 258.887 138.994V136.498ZM231.323 126.037L229.667 124.17C222.771 130.289 213.703 134.003 203.761 134.003V136.499V138.995C214.971 138.995 225.207 134.8 232.98 127.904L231.323 126.037ZM203.761 136.499L203.761 134.003C194.171 134.003 185.397 130.547 178.598 124.813L176.989 126.721L175.38 128.628C183.044 135.093 192.949 138.995 203.761 138.995L203.761 136.499ZM176.989 126.721L175.38 124.813C168.582 130.548 159.806 134.003 150.217 134.003V136.499V138.995C161.029 138.995 170.934 135.093 178.598 128.628L176.989 126.721ZM150.217 136.499L150.217 134.003C140.274 134.003 131.206 130.289 124.311 124.17L122.654 126.037L120.998 127.904C128.771 134.801 139.006 138.995 150.217 138.995L150.217 136.499ZM122.654 126.037L120.998 124.17C114.102 130.288 105.035 134.002 95.0928 134.002V136.498V138.994C106.303 138.994 116.538 134.8 124.311 127.904L122.654 126.037ZM95.0928 136.498L95.0928 134.002C85.5034 134.002 76.7285 130.547 69.9304 124.813L68.3213 126.721L66.7122 128.628C74.3762 135.093 84.2811 138.994 95.0928 138.994L95.0928 136.498ZM68.3213 126.721L66.7122 124.813C59.914 130.547 51.1385 134.002 41.5488 134.002V136.498V138.994C52.3606 138.994 62.2663 135.093 69.9304 128.628L68.3213 126.721ZM41.5488 136.498L41.5488 134.002C19.9803 134.002 2.49565 116.518 2.49565 94.9492H0H-2.49565C-2.49565 119.274 17.2237 138.994 41.5488 138.994L41.5488 136.498ZM0 94.9492L2.49565 94.9492C2.49569 85.3914 5.9279 76.6424 11.628 69.8538L9.7168 68.249L7.80555 66.6442C1.37921 74.2977 -2.49561 84.1734 -2.49565 94.9492L0 94.9492ZM9.7168 68.249L11.6281 66.6442C5.92791 59.8556 2.49565 51.1066 2.49565 41.5488H0H-2.49565C-2.49565 52.3247 1.37924 62.2003 7.80554 69.8538L9.7168 68.249ZM0 41.5488H2.49565C2.49565 19.9803 19.9803 2.49581 41.5488 2.49565L41.5488 0L41.5488 -2.49565C17.2237 -2.49547 -2.49565 17.2236 -2.49565 41.5488H0ZM41.5488 0V2.49565C51.1385 2.49565 59.9141 5.95067 66.7122 11.685L68.3213 9.77734L69.9304 7.86971C62.2663 1.40494 52.3606 -2.49565 41.5488 -2.49565V0ZM68.3213 9.77734L69.9304 11.685C76.7285 5.95085 85.5034 2.4957 95.0928 2.49565L95.0928 0L95.0928 -2.49565C84.2812 -2.4956 74.3762 1.40521 66.7122 7.8697L68.3213 9.77734ZM95.0928 0V2.49565C105.035 2.49565 114.102 6.20976 120.998 12.3278L122.654 10.4609L124.311 8.59411C116.538 1.69787 106.303 -2.49565 95.0928 -2.49565V0ZM122.654 10.4609L124.311 12.3277C131.206 6.20946 140.274 2.49574 150.217 2.49565L150.217 0L150.217 -2.49565C139.007 -2.49555 128.771 1.69741 120.998 8.59415L122.654 10.4609ZM150.217 0V2.49565C159.806 2.49565 168.582 5.95073 175.38 11.685L176.989 9.77734L178.598 7.86971C170.934 1.40501 161.029 -2.49565 150.217 -2.49565V0ZM176.989 9.77734L178.598 11.685C185.396 5.95083 194.171 2.49576 203.761 2.49565L203.761 0L203.761 -2.49565C192.949 -2.49554 183.044 1.40517 175.38 7.8697L176.989 9.77734ZM203.761 0V2.49565C213.703 2.49565 222.771 6.2096 229.667 12.3277L231.323 10.4609L232.98 8.59413C225.206 1.6976 214.971 -2.49565 203.761 -2.49565V0ZM231.323 10.4609L232.98 12.3277C239.875 6.20932 248.944 2.49565 258.887 2.49565V0V-2.49565C247.676 -2.49565 237.44 1.6972 229.667 8.59416L231.323 10.4609ZM258.887 0L258.887 2.49565C268.476 2.49574 277.251 5.95081 284.049 11.685L285.658 9.77734L287.267 7.8697C279.603 1.40515 269.698 -2.49555 258.887 -2.49565L258.887 0ZM285.658 9.77734L287.267 11.685C294.065 5.95075 302.841 2.49565 312.431 2.49565V0V-2.49565C301.619 -2.49565 291.713 1.40503 284.049 7.86971L285.658 9.77734ZM312.431 0L312.431 2.49565C322.373 2.49576 331.44 6.20968 338.336 12.3277L339.992 10.4609L341.648 8.59413C333.876 1.69775 323.641 -2.49553 312.431 -2.49565L312.431 0ZM339.992 10.4609L341.648 12.3277C348.544 6.2096 357.612 2.49565 367.555 2.49565V0V-2.49565C356.344 -2.49565 346.109 1.69761 338.336 8.59413L339.992 10.4609ZM367.555 0L367.555 2.49565C377.144 2.49576 385.919 5.95083 392.717 11.685L394.326 9.77734L395.935 7.8697C388.271 1.40517 378.366 -2.49553 367.555 -2.49565L367.555 0ZM394.326 9.77734L395.935 11.685C402.733 5.95073 411.509 2.49565 421.099 2.49565V0V-2.49565C410.287 -2.49565 400.381 1.40501 392.717 7.86971L394.326 9.77734ZM421.099 0L421.099 2.49565C431.041 2.49574 440.108 6.20968 447.004 12.3277L448.66 10.4609L450.316 8.59413C442.544 1.69775 432.309 -2.49555 421.099 -2.49565L421.099 0ZM448.66 10.4609L450.316 12.3277C457.212 6.20936 466.281 2.49565 476.224 2.49565V0V-2.49565C465.013 -2.49565 454.777 1.69724 447.004 8.59416L448.66 10.4609ZM476.224 0L476.224 2.49565C485.813 2.49574 494.588 5.95084 501.386 11.685L502.995 9.77734L504.604 7.8697C496.94 1.40518 487.035 -2.49555 476.224 -2.49565L476.224 0ZM502.995 9.77734L504.604 11.685C511.402 5.95072 520.178 2.49565 529.768 2.49565V0V-2.49565C518.956 -2.49565 509.05 1.40499 501.386 7.86971L502.995 9.77734ZM529.768 0V2.49565C539.71 2.49573 548.777 6.20969 555.673 12.3278L557.329 10.4609L558.985 8.59412C551.212 1.69776 540.978 -2.49557 529.768 -2.49565V0ZM557.329 10.4609L558.985 12.3277C565.881 6.2094 574.949 2.49571 584.892 2.49565V0V-2.49565C573.681 -2.49559 563.446 1.69736 555.673 8.59416L557.329 10.4609ZM584.892 0V2.49565C594.481 2.49565 603.256 5.95022 610.054 11.684L611.663 9.77637L613.272 7.86869C605.608 1.40441 595.703 -2.49565 584.892 -2.49565V0ZM611.663 9.77637L613.272 11.684C620.07 5.94998 628.846 2.49565 638.436 2.49565V0V-2.49565C627.624 -2.49565 617.718 1.40405 610.054 7.86872L611.663 9.77637ZM638.436 0V2.49565C648.378 2.49568 657.445 6.20965 664.341 12.3278L665.997 10.4609L667.653 8.59412C659.88 1.69775 649.646 -2.49562 638.436 -2.49565V0ZM665.997 10.4609L667.653 12.3277C674.549 6.2094 683.617 2.49572 693.56 2.49565V0V-2.49565C682.349 -2.49557 672.114 1.69735 664.341 8.59416L665.997 10.4609ZM693.56 0V2.49565C703.149 2.49565 711.925 5.95066 718.723 11.685L720.332 9.77734L721.941 7.86972C714.277 1.40492 704.371 -2.49565 693.56 -2.49565V0ZM720.332 9.77734L721.941 11.685C728.739 5.95069 737.515 2.49565 747.104 2.49565V0V-2.49565C736.293 -2.49565 726.387 1.40496 718.723 7.86971L720.332 9.77734ZM747.104 0V2.49565C757.047 2.49574 766.114 6.20964 773.01 12.3277L774.666 10.4609L776.322 8.59413C768.549 1.69771 758.315 -2.49555 747.104 -2.49565V0ZM774.666 10.4609L776.322 12.3277C783.218 6.20943 792.286 2.49567 802.229 2.49565V0V-2.49565C791.018 -2.49564 780.783 1.6974 773.01 8.59415L774.666 10.4609ZM802.229 0V2.49565C811.818 2.49565 820.593 5.95083 827.391 11.685L829 9.77734L830.609 7.86969C822.945 1.40521 813.04 -2.49565 802.229 -2.49565V0ZM829 9.77734L830.609 11.685C837.407 5.95058 846.183 2.49569 855.772 2.49565V0V-2.49565C844.961 -2.49561 835.055 1.40482 827.391 7.86973L829 9.77734ZM855.772 0V2.49565C864.921 2.49565 873.328 5.63823 879.984 10.9044L881.532 8.94727L883.081 6.99012C875.575 1.05151 866.085 -2.49565 855.772 -2.49565V0ZM881.532 8.94727L883.081 10.9044C889.737 5.63819 898.144 2.49565 907.292 2.49565V0V-2.49565C896.98 -2.49565 887.49 1.05146 879.984 6.99013L881.532 8.94727ZM907.292 0V2.49565C916.881 2.49567 925.656 5.95079 932.454 11.685L934.063 9.77734L935.673 7.8697C928.009 1.40516 918.104 -2.49563 907.292 -2.49565V0ZM934.063 9.77734L935.673 11.685C942.471 5.9507 951.246 2.49565 960.836 2.49565V0V-2.49565C950.024 -2.49565 940.118 1.40497 932.454 7.86971L934.063 9.77734ZM960.836 0V2.49565C970.778 2.49575 979.845 6.20964 986.741 12.3277L988.397 10.4609L990.054 8.59413C982.281 1.6977 972.046 -2.49554 960.836 -2.49565V0ZM988.397 10.4609L990.054 12.3277C996.95 6.20941 1006.02 2.49565 1015.96 2.49565V0V-2.49565C1004.75 -2.49565 994.514 1.69739 986.741 8.59415L988.397 10.4609Z" fill="#A2C240" mask="url(#path-1-inside-1_35_128)"/>
</svg>
