<svg width="23" height="24" viewBox="0 0 23 24" fill="none" xmlns="http://www.w3.org/2000/svg">
<path d="M15.6797 1.31421C17.2692 -0.394834 19.9599 -0.443537 21.6104 1.20679C23.2552 2.85185 23.2126 5.53147 21.5166 7.12378L20.2852 8.28003L20.5332 10.5857C20.6602 11.7664 19.848 12.8424 18.6777 13.0437L16.4277 13.4294L7.91992 21.7781L7.67383 22.0183L7.33984 22.1003L2.7832 23.2087C1.18442 23.5974 -0.277701 22.1943 0.0449219 20.5808L0.887695 16.3669L0.964844 15.9822L1.24902 15.7097L9.85645 7.45483V5.1853C9.85658 3.94288 10.864 2.93548 12.1064 2.9353H14.1719L15.6797 1.31421ZM3.2627 17.2419L2.57324 20.6853L6.41406 19.7517L13.9082 12.3992L10.957 9.86206L3.2627 17.2419ZM19.8428 2.97437C19.1937 2.32545 18.1348 2.34429 17.5098 3.01636L15.6318 5.03589L15.2617 5.4353H12.3564V7.23022L16.4941 10.8816L18.0225 10.6189L17.7334 7.92847L17.666 7.30933L18.1201 6.88354L19.8057 5.30151C20.4725 4.67538 20.4895 3.62126 19.8428 2.97437Z" fill="white"/>
</svg>
