<svg width="19" height="24" viewBox="0 0 19 24" fill="none" xmlns="http://www.w3.org/2000/svg">
<g transform="translate(0,-2.09)">
<rect x="9.23047" y="8.18988" width="10.3573" height="10.3573" rx="1.31192" transform="rotate(45 9.23047 8.18988)" stroke="#E4E4E4" stroke-width="1.37615" stroke-linecap="round"/>
<path d="M0.48617 7.76926L-0.000430584 8.25574L0.972541 9.22895L1.45914 8.74246L0.972656 8.25586L0.48617 7.76926ZM5.69494 3.5347L6.18142 4.0213V4.0213L5.69494 3.5347ZM12.7656 3.53512L13.2521 3.04857V3.04857L12.7656 3.53512ZM16.9998 8.7424C17.2685 9.01111 17.7042 9.01111 17.9729 8.7424C18.2416 8.47369 18.2416 8.03803 17.9729 7.76932L17.4863 8.25586L16.9998 8.7424ZM0.972656 8.25586L1.45914 8.74246L6.18142 4.0213L5.69494 3.5347L5.20845 3.04809L0.48617 7.76926L0.972656 8.25586ZM12.7656 3.53512L12.279 4.02166L16.9998 8.7424L17.4863 8.25586L17.9729 7.76932L13.2521 3.04857L12.7656 3.53512ZM5.69494 3.5347L6.18142 4.0213C7.86539 2.33773 10.5953 2.33789 12.279 4.02166L12.7656 3.53512L13.2521 3.04857C11.031 0.827427 7.42986 0.827211 5.20845 3.04809L5.69494 3.5347Z" fill="#E4E4E4"/>
<line x1="17.5014" y1="8.21039" x2="17.5014" y2="5.32867" stroke="#E4E4E4" stroke-width="1.38" stroke-linecap="round"/>
<line x1="17.4155" y1="8.25836" x2="14.3502" y2="8.25836" stroke="#E4E4E4" stroke-width="1.38" stroke-linecap="round"/>
</g>
</svg>
