<svg width="324" height="2224" viewBox="0 0 324 2224" fill="none" xmlns="http://www.w3.org/2000/svg">
<path d="M225.173 0C243.173 0 259.136 4.41496 274.419 13.2451C289.363 22.0754 301.25 33.9628 310.42 49.2461C319.25 64.5294 323.665 80.8315 323.665 98.4922C323.665 116.153 319.25 132.455 310.42 147.738C307.363 152.493 304.306 157.248 300.57 161.663C304.306 166.078 307.363 170.493 310.42 175.588C319.25 190.532 323.665 206.834 323.665 224.834C323.665 242.495 319.25 258.797 310.42 274.08C301.59 289.024 289.702 300.911 274.419 310.081C259.136 318.911 242.833 323.326 225.173 323.326C207.512 323.326 191.21 318.911 175.927 310.081C174.999 309.484 174.072 308.886 173.146 308.284V2223.24H153.321V306.146C151.521 307.28 149.679 308.366 147.738 309.401C132.795 318.232 116.492 322.646 98.4922 322.646C80.492 322.646 64.5293 318.232 49.2461 309.401C34.3024 300.571 22.4151 288.684 13.2451 273.4C4.4149 258.117 0 241.815 0 224.154C6.77904e-05 206.494 4.41485 190.191 13.2451 174.908C16.3017 170.153 19.3589 165.398 23.0947 160.983C19.3589 156.568 16.3018 152.153 13.2451 147.059C4.75456 132.455 0.338867 116.153 0.338867 98.4922C0.338872 80.8315 4.75463 64.5294 13.585 49.2461C22.4153 34.3025 34.3018 22.4151 49.585 13.2451C64.8681 4.41486 81.1706 8.13737e-05 98.8311 0C116.492 0 132.795 4.41478 148.078 13.2451C152.833 16.3017 157.587 19.359 162.002 23.0947C166.417 19.3588 170.832 16.3017 175.927 13.2451C190.87 4.41485 207.173 6.66674e-05 225.173 0Z" fill="#D2FC51"/>
</svg>
