<svg width="200" height="176" viewBox="0 0 200 176" fill="none" xmlns="http://www.w3.org/2000/svg">
<path d="M93.8484 3.55163C96.5824 -1.18388 103.418 -1.18387 106.152 3.55164L199.038 164.435C201.772 169.171 198.354 175.09 192.886 175.09H7.11385C1.64575 175.09 -1.77179 169.171 0.962256 164.435L93.8484 3.55163Z" fill="#FF9500"/>
<path d="M106.429 47.2474L105.484 116.829H94.5174L93.572 47.2474H106.429ZM100.001 144.812C97.6687 144.812 95.6676 143.977 93.9974 142.307C92.3272 140.637 91.4921 138.636 91.4921 136.304C91.4921 133.972 92.3272 131.971 93.9974 130.3C95.6676 128.63 97.6687 127.795 100.001 127.795C102.333 127.795 104.334 128.63 106.004 130.3C107.674 131.971 108.509 133.972 108.509 136.304C108.509 137.848 108.115 139.266 107.328 140.558C106.571 141.85 105.547 142.89 104.255 143.678C102.994 144.434 101.576 144.812 100.001 144.812Z" fill="white"/>
</svg>
